<svg width="150" height="70" viewBox="0 0 150 70" fill="none" xmlns="http://www.w3.org/2000/svg">
<g clip-path="url(#clip0)">
<path d="M92.3981 49.7385C88.8103 52.9323 84.1481 54.7138 79.1248 54.7138C67.6498 54.7138 59.3894 46.5448 59.3894 34.8233C59.3894 23.1018 67.6394 15.281 79.1248 15.281C84.1481 15.281 88.8103 16.7038 92.3981 20.2563L94.9097 22.3843L105.671 11.7268L103.16 9.24176C96.3452 3.55776 88.0847 0.00525977 79.1231 0.00525977C58.6777 -0.35174 43.6045 14.217 43.6045 34.8233C43.6045 54.7138 59.0266 70 79.1248 70C88.4475 70 97.0586 66.8063 103.884 60.767L106.395 58.2785L94.9219 46.9158L92.3981 49.7385Z" fill="white" fill-opacity="0.7"/>
<path d="M78.5875 46.6673C85.0271 46.6673 90.2492 41.4435 90.2492 35C90.2492 28.5565 85.0271 23.3328 78.5875 23.3328C72.148 23.3328 66.9242 28.5583 66.9242 35C66.9242 41.4418 72.1445 46.6673 78.5858 46.6673H78.5875ZM18.8718 7.83127C20.3544 5.47227 20.998 3.27777 20.998 3.27777C20.998 3.27777 19.0498 3.93402 16.6585 5.84677C14.4713 7.83652 11.9405 11.3015 12.1184 15.8358C15.3887 13.2003 17.5463 10.3758 18.8701 7.83127H18.8718ZM6.38522 34.0235L6.26138 35.875C6.23871 36.2705 6.50557 36.6205 6.89801 36.6293C7.27475 36.6608 7.61313 36.3405 7.6358 35.959L7.76313 34.1128C10.4492 32.4853 12.2928 30.1613 13.4509 28.0893C14.037 26.9413 14.5602 25.907 14.937 25.1633C15.2422 24.3758 15.441 23.8998 15.441 23.8998C15.441 23.8998 13.6951 24.0695 11.5463 25.4765C10.0253 26.6403 7.98289 28.7665 7.22592 32.151C7.22068 32.151 7.2172 32.1458 7.21022 32.1458C7.23638 28.6545 6.81603 25.8773 5.94743 23.6705C5.15557 21.063 4.01138 19.4513 4.01138 19.4513L3.53347 21.1068C3.28057 22.1428 2.95092 23.562 3.04859 25.2228C3.06952 28.231 3.82301 31.759 6.38696 34.0235H6.38522Z" fill="white" fill-opacity="0.7"/>
<path d="M8.06491 24.4353C8.03293 24.5245 8.01936 24.6194 8.02503 24.7141C8.03071 24.8088 8.0555 24.9013 8.09791 24.9861C8.14033 25.0708 8.19947 25.1461 8.27175 25.2072C8.34404 25.2684 8.42795 25.3141 8.5184 25.3418C8.87421 25.4555 9.24398 25.2245 9.38003 24.8623L9.9591 23.1578C12.8858 22.2758 14.794 20.3298 16.451 18.7355C17.162 17.974 17.7932 17.1413 18.3347 16.2505C18.7847 15.6013 19.0794 15.218 19.0794 15.218C19.0794 15.218 17.269 14.8908 15.1899 15.8883C13.4562 16.6478 11.276 18.1895 9.8527 21.0805L9.81258 21.0683C10.5312 17.8728 10.5539 15.2215 10.2626 13.0253C9.8091 10.3163 9.18991 8.645 9.18991 8.645C8.95096 8.40875 4.57654 17.164 8.61607 22.785L8.06491 24.4353ZM12.0905 56.945C12.5981 57.6852 13.5417 59.0327 13.6149 58.961C13.901 59.2585 14.3544 59.2918 14.623 59.0205C14.7538 58.8891 14.8287 58.7119 14.832 58.5261C14.8352 58.3404 14.7666 58.1607 14.6405 58.0247C14.5672 58.0773 13.6201 56.735 13.1422 56.0507C15.6103 48.3052 14.0841 42.1173 14.3544 41.7008C14.3544 41.7008 12.3905 42.7787 11.3196 45.2532C10.1736 47.4127 9.55096 51.422 11.9527 55.4453C11.9353 55.4575 11.9196 55.4627 11.9056 55.475C11.8794 55.4925 11.8655 55.5205 11.8463 55.5415C9.04689 51.8053 6.66084 49.0997 4.43352 46.984C1.79979 44.6652 0.0207246 43.4805 0.0224687 43.4683C-0.122299 43.4105 0.400957 46.9508 2.51665 50.7115C4.46491 54.1485 8.12421 57.099 12.0905 56.9433V56.945Z" fill="white" fill-opacity="0.7"/>
<path d="M20.7069 65.1193L25.1668 67.9245C25.5051 68.152 25.9429 67.977 26.0982 67.6375C26.2621 67.2595 26.0982 66.8675 25.779 66.654L21.3801 63.875C21.1883 59.5945 20.0389 56.1138 19.0604 53.6655C18.1534 50.946 17.0668 49.196 17.1418 49.1173C17.1418 49.1173 15.6348 50.8603 15.436 53.858C15.0051 56.6773 16.2226 60.7775 20.2656 63.861C20.2377 63.8908 20.2063 63.9135 20.1819 63.952C15.9714 61.25 12.2319 59.7398 9.31386 58.4185C5.94409 57.1673 3.63479 56.6528 3.63479 56.6528C3.63479 56.6528 3.94874 57.5348 4.87316 58.7353C5.81502 59.892 7.07956 61.5353 8.82374 62.8968C12.1813 65.478 16.8575 67.0163 20.7051 65.1193H20.7069ZM7.17025 46.144L7.847 48.636C7.95688 49.0298 8.32839 49.2643 8.68421 49.1208C8.86102 49.0446 9.00482 48.9074 9.08959 48.7341C9.17437 48.5608 9.19452 48.3627 9.14642 48.1758L8.49758 45.78C10.9726 42.9118 12.5493 39.8073 13.2766 37.275C14.3807 34.51 14.3964 32.277 14.522 32.2438C14.522 32.2438 12.5284 32.7688 10.5889 34.8688C8.78886 36.6835 6.94002 40.1083 7.65165 44.7493C7.60281 44.7458 7.55397 44.7353 7.50514 44.744C6.32607 40.2203 4.922 36.771 3.49351 34.1845C1.82258 31.3023 0.226649 29.659 0.226649 29.659C0.226649 29.659 0.0312998 30.443 0.0661835 31.7538C0.0592068 33.0558 0.146416 34.8775 0.456881 36.8025C1.34293 40.502 3.27897 44.7055 7.172 46.144H7.17025ZM131.128 7.83127C129.645 5.47227 129.002 3.27777 129.002 3.27777C129.002 3.27777 130.95 3.93402 133.341 5.84677C135.528 7.83652 138.059 11.3015 137.881 15.8358C134.611 13.2003 132.453 10.3758 131.13 7.83127H131.128ZM143.613 34.0235L143.74 35.875C143.763 36.2705 143.496 36.6205 143.103 36.6293C142.727 36.6608 142.388 36.3405 142.366 35.959L142.238 34.1128C139.552 32.4853 137.709 30.1613 136.549 28.0893L135.064 25.1633C134.759 24.3758 134.56 23.8998 134.56 23.8998C134.56 23.8998 136.306 24.0695 138.455 25.4765C139.974 26.6403 142.019 28.7665 142.775 32.151C142.781 32.151 142.784 32.1458 142.791 32.1458C142.765 28.6545 143.185 25.8773 144.054 23.6705C144.846 21.063 145.99 19.4513 145.99 19.4513L146.468 21.1068C146.721 22.1428 147.05 23.562 146.953 25.2228C146.932 28.231 146.178 31.759 143.613 34.0235Z" fill="white" fill-opacity="0.7"/>
<path d="M141.935 24.4353C141.967 24.5245 141.98 24.6194 141.975 24.7141C141.969 24.8088 141.944 24.9013 141.902 24.9861C141.859 25.0708 141.8 25.1461 141.728 25.2072C141.656 25.2684 141.572 25.3141 141.481 25.3418C141.125 25.4555 140.756 25.2245 140.62 24.8623L140.041 23.1578C137.114 22.2758 135.206 20.3298 133.549 18.7355C132.838 17.974 132.206 17.1413 131.665 16.2505C131.215 15.6013 130.92 15.218 130.92 15.218C130.92 15.218 132.731 14.8908 134.81 15.8883C136.543 16.6478 138.724 18.1895 140.147 21.0805L140.187 21.0683C139.468 17.8728 139.446 15.2215 139.737 13.0253C140.191 10.3163 140.81 8.645 140.81 8.645C141.049 8.40875 145.423 17.164 141.384 22.785L141.935 24.4353ZM137.909 56.945C137.402 57.6852 136.458 59.0327 136.385 58.961C136.099 59.2585 135.645 59.2918 135.377 59.0205C135.246 58.8891 135.171 58.7119 135.168 58.5261C135.164 58.3404 135.233 58.1607 135.359 58.0247C135.432 58.0773 136.379 56.735 136.857 56.0507C134.389 48.3052 135.916 42.1173 135.645 41.7008C135.645 41.7008 137.609 42.7787 138.68 45.2532C139.824 47.4127 140.449 51.422 138.047 55.4453C138.064 55.4575 138.08 55.4627 138.094 55.475C138.12 55.4925 138.132 55.5205 138.153 55.5415C140.953 51.8053 143.339 49.0997 145.566 46.984C148.2 44.6652 149.979 43.4805 149.977 43.4683C150.122 43.4105 149.599 46.9508 147.483 50.7115C145.535 54.1485 141.875 57.099 137.909 56.9433V56.945Z" fill="white" fill-opacity="0.7"/>
<path d="M129.293 65.1192L124.833 67.9245C124.495 68.152 124.057 67.977 123.9 67.6375C123.738 67.2595 123.903 66.8675 124.221 66.654L128.62 63.875C128.811 59.5945 129.961 56.1137 130.939 53.6655C131.846 50.946 132.933 49.196 132.858 49.1172C132.858 49.1172 134.365 50.8602 134.564 53.858C134.995 56.6772 133.777 60.7775 129.734 63.861C129.762 63.8908 129.793 63.9135 129.818 63.952C134.028 61.2517 137.768 59.7397 140.684 58.4185C144.054 57.1672 146.363 56.6528 146.363 56.6528C146.363 56.6528 146.049 57.5347 145.125 58.7352C144.183 59.892 142.918 61.5353 141.174 62.8968C137.815 65.478 133.141 67.0162 129.293 65.1192ZM142.828 46.144L142.153 48.636C142.043 49.0297 141.671 49.2642 141.316 49.1207C141.139 49.0446 140.995 48.9074 140.91 48.7341C140.825 48.5607 140.805 48.3627 140.853 48.1757L141.502 45.78C139.027 42.9117 137.45 39.8072 136.723 37.275C135.619 34.51 135.602 32.277 135.478 32.2437C135.478 32.2437 137.471 32.7687 139.411 34.8687C141.211 36.6835 143.06 40.1082 142.346 44.7492C142.397 44.7457 142.446 44.7352 142.495 44.744C143.674 40.2202 145.078 36.771 146.506 34.1845C148.179 31.3022 149.773 29.659 149.773 29.659C149.773 29.659 149.968 30.443 149.934 31.7537C149.941 33.0557 149.853 34.8775 149.543 36.8025C148.657 40.502 146.721 44.7055 142.828 46.144Z" fill="white" fill-opacity="0.7"/>
</g>
<defs>
<clipPath id="clip0">
<rect width="150" height="70" fill="white"/>
</clipPath>
</defs>
</svg>
