<svg width="164" height="24" viewBox="0 0 164 24" fill="none" xmlns="http://www.w3.org/2000/svg">
<path d="M14.5892 20.216V23H0.28519V20.216H6.14119V3.384H0.63719V0.599998H9.34119V20.216H14.5892ZM21.7314 23.192C21.1341 23.192 20.6221 22.9893 20.1954 22.584C19.7688 22.1573 19.5554 21.624 19.5554 20.984C19.5554 20.3653 19.7688 19.8533 20.1954 19.448C20.6221 19.0213 21.1341 18.808 21.7314 18.808C22.3288 18.808 22.8301 19.0107 23.2354 19.416C23.6408 19.8213 23.8434 20.344 23.8434 20.984C23.8434 21.624 23.6301 22.1573 23.2034 22.584C22.7981 22.9893 22.3074 23.192 21.7314 23.192ZM49.376 23.256C47.136 23.256 45.1093 22.7653 43.296 21.784C41.504 20.7813 40.096 19.416 39.072 17.688C38.048 15.9387 37.536 13.976 37.536 11.8C37.536 9.624 38.048 7.672 39.072 5.944C40.096 4.19467 41.5147 2.82933 43.328 1.848C45.1413 0.845333 47.168 0.344 49.408 0.344C51.1573 0.344 52.7573 0.642666 54.208 1.24C55.6587 1.816 56.896 2.68 57.92 3.832L55.84 5.848C54.1547 4.07733 52.0533 3.192 49.536 3.192C47.872 3.192 46.368 3.56533 45.024 4.312C43.68 5.05867 42.624 6.09333 41.856 7.416C41.1093 8.71733 40.736 10.1787 40.736 11.8C40.736 13.4213 41.1093 14.8933 41.856 16.216C42.624 17.5173 43.68 18.5413 45.024 19.288C46.368 20.0347 47.872 20.408 49.536 20.408C52.032 20.408 54.1333 19.512 55.84 17.72L57.92 19.736C56.896 20.888 55.648 21.7627 54.176 22.36C52.7253 22.9573 51.1253 23.256 49.376 23.256ZM68.5823 23.192C66.8969 23.192 65.3823 22.8187 64.0383 22.072C62.6943 21.3253 61.6383 20.3013 60.8703 19C60.1236 17.6773 59.7503 16.184 59.7503 14.52C59.7503 12.856 60.1236 11.3733 60.8703 10.072C61.6383 8.74933 62.6943 7.72533 64.0383 7C65.3823 6.25333 66.8969 5.88 68.5823 5.88C70.2676 5.88 71.7716 6.25333 73.0943 7C74.4383 7.72533 75.4836 8.74933 76.2303 10.072C76.9983 11.3733 77.3823 12.856 77.3823 14.52C77.3823 16.184 76.9983 17.6773 76.2303 19C75.4836 20.3013 74.4383 21.3253 73.0943 22.072C71.7716 22.8187 70.2676 23.192 68.5823 23.192ZM68.5823 20.504C69.6703 20.504 70.6409 20.2587 71.4943 19.768C72.3689 19.256 73.0516 18.552 73.5423 17.656C74.0329 16.7387 74.2783 15.6933 74.2783 14.52C74.2783 13.3467 74.0329 12.312 73.5423 11.416C73.0516 10.4987 72.3689 9.79467 71.4943 9.304C70.6409 8.81333 69.6703 8.568 68.5823 8.568C67.4943 8.568 66.5129 8.81333 65.6383 9.304C64.7849 9.79467 64.1023 10.4987 63.5903 11.416C63.0996 12.312 62.8543 13.3467 62.8543 14.52C62.8543 15.6933 63.0996 16.7387 63.5903 17.656C64.1023 18.552 64.7849 19.256 65.6383 19.768C66.5129 20.2587 67.4943 20.504 68.5823 20.504ZM90.6868 5.88C92.8414 5.88 94.5481 6.50933 95.8068 7.768C97.0868 9.00533 97.7268 10.8293 97.7268 13.24V23H94.6548V13.592C94.6548 11.9493 94.2601 10.712 93.4708 9.88C92.6814 9.048 91.5508 8.632 90.0788 8.632C88.4148 8.632 87.1028 9.12267 86.1428 10.104C85.1828 11.064 84.7028 12.4507 84.7028 14.264V23H81.6308V6.04H84.5748V8.6C85.1934 7.72533 86.0254 7.05333 87.0708 6.584C88.1374 6.11467 89.3428 5.88 90.6868 5.88ZM112.948 22.008C112.5 22.392 111.945 22.6907 111.284 22.904C110.623 23.096 109.94 23.192 109.236 23.192C107.529 23.192 106.207 22.7333 105.268 21.816C104.329 20.8987 103.86 19.5867 103.86 17.88V8.568H100.98V6.04H103.86V2.328H106.932V6.04H111.796V8.568H106.932V17.752C106.932 18.6693 107.156 19.3733 107.604 19.864C108.073 20.3547 108.735 20.6 109.588 20.6C110.527 20.6 111.327 20.3333 111.988 19.8L112.948 22.008ZM122.838 5.88C125.185 5.88 126.977 6.456 128.214 7.608C129.473 8.76 130.102 10.4773 130.102 12.76V23H127.19V20.76C126.678 21.5493 125.942 22.1573 124.982 22.584C124.043 22.9893 122.923 23.192 121.622 23.192C119.723 23.192 118.198 22.7333 117.046 21.816C115.915 20.8987 115.35 19.6933 115.35 18.2C115.35 16.7067 115.894 15.512 116.982 14.616C118.07 13.6987 119.798 13.24 122.166 13.24H127.03V12.632C127.03 11.3093 126.646 10.296 125.878 9.592C125.11 8.888 123.979 8.536 122.486 8.536C121.483 8.536 120.502 8.70667 119.542 9.048C118.582 9.368 117.771 9.80533 117.11 10.36L115.83 8.056C116.705 7.352 117.75 6.81867 118.966 6.456C120.182 6.072 121.473 5.88 122.838 5.88ZM122.134 20.824C123.307 20.824 124.321 20.568 125.174 20.056C126.027 19.5227 126.646 18.776 127.03 17.816V15.448H122.294C119.691 15.448 118.39 16.3227 118.39 18.072C118.39 18.9253 118.721 19.5973 119.382 20.088C120.043 20.5787 120.961 20.824 122.134 20.824ZM143.273 23.192C141.545 23.192 139.998 22.8187 138.633 22.072C137.289 21.3253 136.233 20.3013 135.465 19C134.697 17.6773 134.313 16.184 134.313 14.52C134.313 12.856 134.697 11.3733 135.465 10.072C136.233 8.74933 137.289 7.72533 138.633 7C139.998 6.25333 141.545 5.88 143.273 5.88C144.809 5.88 146.174 6.18933 147.369 6.808C148.585 7.42667 149.523 8.32267 150.185 9.496L147.849 11C147.315 10.1893 146.654 9.58133 145.865 9.176C145.075 8.77067 144.201 8.568 143.241 8.568C142.131 8.568 141.129 8.81333 140.233 9.304C139.358 9.79467 138.665 10.4987 138.153 11.416C137.662 12.312 137.417 13.3467 137.417 14.52C137.417 15.7147 137.662 16.7707 138.153 17.688C138.665 18.584 139.358 19.2773 140.233 19.768C141.129 20.2587 142.131 20.504 143.241 20.504C144.201 20.504 145.075 20.3013 145.865 19.896C146.654 19.4907 147.315 18.8827 147.849 18.072L150.185 19.544C149.523 20.7173 148.585 21.624 147.369 22.264C146.174 22.8827 144.809 23.192 143.273 23.192ZM163.917 22.008C163.469 22.392 162.914 22.6907 162.253 22.904C161.591 23.096 160.909 23.192 160.205 23.192C158.498 23.192 157.175 22.7333 156.237 21.816C155.298 20.8987 154.829 19.5867 154.829 17.88V8.568H151.949V6.04H154.829V2.328H157.901V6.04H162.765V8.568H157.901V17.752C157.901 18.6693 158.125 19.3733 158.573 19.864C159.042 20.3547 159.703 20.6 160.557 20.6C161.495 20.6 162.295 20.3333 162.957 19.8L163.917 22.008Z" fill="white"/>
</svg>
