<svg width="130" height="130" viewBox="0 0 130 130" fill="none" xmlns="http://www.w3.org/2000/svg">
<circle cx="65" cy="65" r="65" fill="white"/>
<g clip-path="url(#clip0)">
<path d="M67.3547 62.6471C66.782 62.0743 65.8547 62.0743 65.282 62.6471C64.7107 63.2184 64.7107 64.1456 65.282 64.7184C65.8547 65.2897 66.782 65.2897 67.3547 64.7184C67.926 64.1456 67.926 63.2184 67.3547 62.6471Z" fill="#4C82DE"/>
<path d="M85.9977 44.0024C83.1354 41.1402 78.5019 41.1401 75.6394 44.0024C72.7846 46.8572 72.7844 51.5037 75.6398 54.3609C78.4957 57.215 83.1422 57.2161 85.9977 54.3606C88.8597 51.4986 88.8603 46.8648 85.9977 44.0024ZM83.9262 52.2888C82.2133 54.0018 79.4251 54.0018 77.7114 52.2891C75.9983 50.575 75.9982 47.7868 77.7111 46.074C79.4284 44.3567 82.2086 44.3564 83.9262 46.074C85.6434 47.791 85.6437 50.5715 83.9262 52.2888Z" fill="#4C82DE"/>
<path d="M102.57 27.4291C102.283 27.1415 101.89 26.9857 101.482 27.001C101.151 27.0129 93.2649 27.3299 83.8907 30.6432C76.379 33.2955 70.1178 37.0928 65.2811 41.9297C64.1972 43.0135 63.1425 44.1628 62.1334 45.3568C57.351 42.5417 53.5187 43.4244 51.096 44.7209C45.5177 47.7063 42.0649 55.8121 42.0649 61.61C42.0654 62.2023 42.4224 62.7366 42.9696 62.9632C43.1508 63.0383 43.3413 63.0748 43.5299 63.0748C43.9112 63.0748 44.2858 62.9258 44.566 62.6457C47.5079 59.7039 51.1364 59.8879 52.3218 60.0437L52.8347 60.5567C51.8252 62.9591 51.0119 65.3479 50.4154 67.6713C50.2001 68.5121 50.2727 69.4019 50.5928 70.2157C49.1825 70.8657 47.8218 71.82 46.637 73.0048C42.8664 76.7756 42.1007 85.9651 42.0699 86.3545C42.0362 86.7818 42.1912 87.2025 42.4943 87.5056C42.7701 87.7812 43.1432 87.9346 43.5299 87.9346C43.5683 87.9346 43.6068 87.9332 43.6454 87.9301C44.0347 87.8995 53.2245 87.1338 56.9952 83.3631C58.1795 82.1788 59.1337 80.8183 59.7837 79.4082C60.6453 79.747 61.5321 79.7888 62.3295 79.5844C64.6519 78.9881 67.0405 78.1751 69.4431 77.1654L69.9561 77.6784C70.1118 78.8639 70.2958 82.4924 67.3541 85.434C66.9353 85.8529 66.8099 86.483 67.0367 87.0302C67.2633 87.5776 67.7974 87.9345 68.3899 87.9345C74.1877 87.9345 82.2934 84.4817 85.2788 78.9034C86.5753 76.481 87.458 72.6487 84.6429 67.8661C85.8363 66.8575 86.9858 65.8028 88.07 64.7185C92.9069 59.8816 96.7041 53.6204 99.3563 46.1093C102.67 36.7346 102.987 28.8485 102.999 28.5174C103.013 28.1109 102.858 27.7168 102.57 27.4291ZM45.34 58.4592C46.25 54.0555 48.893 49.2231 52.4789 47.3039C54.8753 46.0216 57.4946 46.1472 60.2795 47.6717C57.9069 50.7921 55.8443 54.1539 54.125 57.704C54.1032 57.6905 53.8395 57.359 53.3496 57.2485C53.1482 57.203 49.2724 56.3693 45.34 58.4592ZM54.9236 81.2914C52.9095 83.3056 48.1846 84.3679 45.1982 84.8016C45.6321 81.8151 46.6946 77.0904 48.7086 75.0764C49.8365 73.9485 51.1443 73.0933 52.4589 72.6116L57.3884 77.5411C56.9067 78.8557 56.0517 80.1635 54.9236 81.2914ZM61.6018 76.7464C61.1779 76.855 60.6869 76.6956 60.3218 76.3312C58.4268 74.4361 57.6854 73.6947 57.4528 73.4623C57.0262 73.0357 55.9802 71.9897 53.6697 69.679C53.3044 69.313 53.145 68.8221 53.2533 68.3989C53.7224 66.5717 54.3361 64.697 55.0822 62.8042L67.1958 74.9177C65.3027 75.6641 63.4283 76.2776 61.6018 76.7464ZM82.6961 77.5211C80.7769 81.1068 75.9447 83.75 71.5411 84.6598C72.9451 82.0177 73.2546 78.6543 72.7416 76.6148C72.6225 76.141 72.3135 75.9029 72.2962 75.8749C75.8459 74.1556 79.2076 72.0929 82.3283 69.7203C83.8527 72.5056 83.9783 75.1252 82.6961 77.5211ZM85.9987 62.6469C84.6788 63.9667 83.2574 65.2419 81.7741 66.4368C78.2084 69.3078 74.2838 71.7398 70.0967 73.6757L56.3243 59.9036C58.2602 55.7162 60.6922 51.7916 63.5629 48.2263C64.7588 46.742 66.0338 45.3205 67.3532 44.0013C71.6928 39.6615 77.2935 36.2077 84.0042 33.7216L96.2784 45.9958C93.7926 52.7064 90.3388 58.307 85.9987 62.6469ZM97.3324 42.9063L87.0937 32.6676C92.672 30.935 97.5248 30.2862 99.9471 30.053C99.7138 32.4757 99.0648 37.3286 97.3324 42.9063Z" fill="#4C82DE"/>
<path d="M63.2107 87.505C62.6384 86.933 61.7109 86.9333 61.139 87.5053L56.9964 91.6494C56.4246 92.2215 56.4247 93.1491 56.9967 93.721C57.569 94.2928 58.4966 94.2928 59.0685 93.7207L63.211 89.5766C63.7829 89.0045 63.7828 88.0769 63.2107 87.505Z" fill="#4C82DE"/>
<path d="M42.4952 66.7898C41.9233 66.2176 40.9959 66.2176 40.4236 66.7895L36.2796 70.932C35.7074 71.5039 35.7073 72.4314 36.2791 73.0036C36.8509 73.5755 37.7783 73.5761 38.3507 73.0039L42.4948 68.8613C43.0669 68.2895 43.0671 67.3619 42.4952 66.7898Z" fill="#4C82DE"/>
<path d="M52.853 89.578C52.2813 89.0059 51.3536 89.0059 50.7814 89.5778L40.8586 99.4992C40.2864 100.071 40.2864 100.999 40.8584 101.571C41.4302 102.143 42.3579 102.143 42.93 101.571L52.8529 91.6495C53.425 91.0775 53.425 90.15 52.853 89.578Z" fill="#4C82DE"/>
<path d="M41.1342 89.578C40.5624 89.0059 39.6347 89.0059 39.0627 89.5778L29.1398 99.4992C28.5677 100.071 28.5677 100.999 29.1397 101.571C29.7114 102.143 30.6391 102.143 31.2113 101.571L41.1341 91.6495C41.7063 91.0775 41.7063 90.15 41.1342 89.578Z" fill="#4C82DE"/>
<path d="M40.4222 77.1472C39.8503 76.5753 38.9226 76.5753 38.3506 77.1473L28.4292 87.0701C27.8572 87.6423 27.8572 88.5697 28.4294 89.1418C29.0014 89.7139 29.9289 89.7139 30.501 89.1417L40.4223 79.2189C40.9944 78.6467 40.9944 77.7193 40.4222 77.1472Z" fill="#4C82DE"/>
<path d="M73.5686 56.4315C72.9964 55.8594 72.0692 55.8594 71.4969 56.4315L69.4256 58.5027C68.8536 59.0748 68.8536 60.0023 69.4256 60.5745C69.9978 61.1465 70.9251 61.1465 71.4973 60.5745L73.5686 58.5032C74.1406 57.9312 74.1406 57.0036 73.5686 56.4315Z" fill="#4C82DE"/>
</g>
<defs>
<clipPath id="clip0">
<rect width="75" height="75" fill="white" transform="translate(28 27)"/>
</clipPath>
</defs>
</svg>
