<svg width="130" height="130" viewBox="0 0 130 130" fill="none" xmlns="http://www.w3.org/2000/svg">
<circle cx="65" cy="65" r="65" fill="white"/>
<path d="M59.1573 47.1022C62.4208 47.1022 65.076 44.4471 65.076 41.1836C65.076 37.9201 62.4208 35.2649 59.1573 35.2649C55.8938 35.2649 53.2388 37.9201 53.2388 41.1836C53.2388 44.4471 55.8938 47.1022 59.1573 47.1022ZM59.1573 37.4622C61.2094 37.4622 62.8788 39.1315 62.8788 41.1836C62.8788 43.2355 61.2094 44.9049 59.1573 44.9049C57.1054 44.9049 55.436 43.2355 55.436 41.1836C55.436 39.1316 57.1054 37.4622 59.1573 37.4622Z" fill="#4C82DE"/>
<path d="M56.9801 91.0141C60.7148 91.0141 63.7534 87.9756 63.7534 84.2408C63.7534 80.5061 60.7148 77.4675 56.9801 77.4675C53.2453 77.4675 50.2068 80.5061 50.2068 84.2408C50.2068 87.9756 53.2453 91.0141 56.9801 91.0141ZM56.9801 79.6648C59.5034 79.6648 61.5561 81.7176 61.5561 84.2408C61.5561 86.764 59.5033 88.8168 56.9801 88.8168C54.4569 88.8168 52.4041 86.764 52.4041 84.2408C52.4041 81.7176 54.4567 79.6648 56.9801 79.6648Z" fill="#4C82DE"/>
<path d="M47.2796 46.282C43.32 46.282 40.0986 49.5033 40.0986 53.4629C40.0986 57.4226 43.32 60.6439 47.2796 60.6439C51.2392 60.6439 54.4605 57.4226 54.4605 53.4629C54.4605 49.5033 51.2392 46.282 47.2796 46.282ZM47.2796 58.4468C44.5315 58.4468 42.2959 56.2111 42.2959 53.4631C42.2959 50.715 44.5317 48.4794 47.2796 48.4794C50.0275 48.4794 52.2633 50.715 52.2633 53.4631C52.2633 56.2111 50.0276 58.4468 47.2796 58.4468Z" fill="#4C82DE"/>
<path d="M45.2232 78.0824C49.1828 78.0824 52.4042 74.861 52.4042 70.9014C52.4042 66.9418 49.1828 63.7205 45.2232 63.7205C41.2636 63.7205 38.0422 66.9418 38.0422 70.9014C38.0422 74.861 41.2636 78.0824 45.2232 78.0824ZM45.2232 65.9176C47.9712 65.9176 50.2069 68.1532 50.2069 70.9013C50.2069 73.6493 47.9711 75.885 45.2232 75.885C42.4753 75.885 40.2395 73.6493 40.2395 70.9013C40.2395 68.1532 42.4751 65.9176 45.2232 65.9176Z" fill="#4C82DE"/>
<path d="M52.3806 98.8433C52.9766 98.953 53.5495 98.5568 53.6586 97.9599C53.7677 97.363 53.3721 96.7908 52.7752 96.6818C48.5642 95.9129 44.7973 93.8239 41.8815 90.6406C33.3886 81.3683 29.6072 71.3676 30.6424 60.9161C32.9784 37.3289 57.8518 25.5886 80.7908 30.1766C83.8898 30.7963 85.0969 33.3223 85.1884 35.2969C85.2791 37.246 84.3247 39.8386 81.3368 40.7313C77.4762 41.8845 74.4238 43.5678 72.2643 45.7341C67.315 50.6994 66.8862 59.0772 71.6122 64.7205C73.9458 67.5071 75.4386 70.8861 75.9399 74.5095C73.452 80.1642 70.9079 86.5679 68.939 92.495C65.7757 95.108 61.7733 96.6914 57.6331 96.9618C57.0276 97.0013 56.5688 97.5241 56.6084 98.1297C56.6464 98.7108 57.1295 99.1568 57.7038 99.1568C57.7278 99.1568 57.7519 99.1561 57.7764 99.1543C61.3414 98.9216 64.8155 97.8105 67.836 95.9692C67.197 98.1951 68.2401 100.527 70.3381 101.535C72.5784 102.612 75.2905 101.759 76.5131 99.5955C78.6286 95.8524 80.9209 91.3094 83.1417 86.4576C83.3944 85.9059 83.1517 85.2539 82.6002 85.0014C82.0482 84.7487 81.3965 84.9916 81.144 85.5431C78.9487 90.3394 76.6858 94.8247 74.6003 98.5145C73.9445 99.6748 72.4907 100.131 71.2898 99.5548C70.1535 99.0087 69.5935 97.7396 69.9582 96.5371C72.7943 87.1818 77.5241 75.7942 81.8569 66.9888L87.762 69.5165C86.3852 73.2685 84.8168 77.1752 83.2164 80.8794C82.9761 81.4364 83.2329 82.0829 83.7899 82.3232C84.3479 82.5639 84.9936 82.3068 85.234 81.7498C88.2483 74.7546 91.6126 66.0173 93.5759 58.6668C94.2737 58.4162 94.7781 57.9114 95.0454 57.2868L95.9962 55.0655C96.2 54.5896 96.245 54.0853 96.156 53.6109C97.9847 52.4436 100.544 50.3614 101.871 47.2627C103.509 43.435 102.421 36.9504 101.626 33.4257C101.473 32.7504 101.002 32.1844 100.366 31.9119C99.7292 31.6395 98.9947 31.6891 98.4009 32.0452C95.3019 33.9034 89.8581 37.5918 88.2197 41.4191C86.8938 44.5165 87.1535 47.8049 87.5708 49.9339C87.1551 50.2036 86.8284 50.5899 86.6291 51.0557L85.6782 53.277C85.4087 53.9064 85.3957 54.6174 85.6941 55.2927C82.7461 60.1236 79.8194 65.9867 77.4585 71.1309C76.6292 68.2683 75.2215 65.6084 73.2969 63.31C71.454 61.1094 70.5196 58.5301 70.5196 55.6437C70.5196 49.4146 74.3706 45.1058 81.9658 42.8368C85.4247 41.8035 87.5512 38.804 87.3835 35.1952C87.2447 32.2105 85.2857 28.8351 81.2218 28.0222C57.04 23.1856 30.9271 35.7527 28.4557 60.6996C27.3564 71.7992 31.3283 82.3722 40.2613 92.1247C43.5034 95.6644 47.6941 97.9877 52.3806 98.8433ZM87.3792 56.7501C88.819 57.3663 89.9182 57.837 91.358 58.4532C90.6398 61.0948 89.6668 64.1645 88.5077 67.4455L82.8403 65.0195C84.4147 61.9154 85.964 59.0925 87.3792 56.7501ZM93.9762 54.2007L93.0254 56.422C92.9485 56.6012 92.7477 56.6581 92.5969 56.5935L87.8695 54.5698C87.7163 54.5042 87.6221 54.3187 87.698 54.1415L88.6488 51.9201C88.7229 51.7474 88.9189 51.6806 89.0775 51.7487L93.8047 53.7722C93.957 53.8375 94.0508 54.0265 93.9762 54.2007ZM90.2394 42.2837C90.7205 41.1599 92.5851 38.101 99.4918 33.9527C101.258 41.8141 100.332 45.2738 99.8506 46.3978C98.7163 49.048 96.4344 50.8472 94.8491 51.8381C94.7904 51.8071 94.7302 51.7784 94.6691 51.7524L89.9418 49.7287H89.9416C89.8806 49.7026 89.8184 49.6789 89.7555 49.6578C89.3784 47.8266 89.1052 44.9336 90.2394 42.2837Z" fill="#4C82DE"/>
</svg>
