<svg width="130" height="130" viewBox="0 0 130 130" fill="none" xmlns="http://www.w3.org/2000/svg">
<circle cx="65" cy="65" r="65" fill="white"/>
<path d="M81.6133 28H49.3867C46.3577 28 43.8936 30.4642 43.8936 33.4932V97.5068C43.8936 100.536 46.3577 103 49.3867 103H81.6133C84.6423 103 87.1064 100.536 87.1064 97.5068V33.4932C87.1064 30.4642 84.6423 28 81.6133 28ZM84.9092 87.6191H53.7812C53.1745 87.6191 52.6826 88.111 52.6826 88.7178C52.6826 89.3245 53.1745 89.8164 53.7812 89.8164H84.9092V97.5068C84.9092 99.3243 83.4307 100.803 81.6133 100.803H49.3867C47.5693 100.803 46.0908 99.3243 46.0908 97.5068V89.8164H49.3867C49.9935 89.8164 50.4854 89.3245 50.4854 88.7178C50.4854 88.111 49.9935 87.6191 49.3867 87.6191H46.0908V38.9863H84.9092V87.6191ZM84.9092 36.7891H46.0908V33.4932C46.0908 31.6757 47.5693 30.1973 49.3867 30.1973H81.6133C83.4307 30.1973 84.9092 31.6757 84.9092 33.4932V36.7891Z" fill="#4C82DE"/>
<path d="M69.8945 32.3945H65.5C64.8933 32.3945 64.4014 32.8864 64.4014 33.4932C64.4014 34.0999 64.8933 34.5918 65.5 34.5918H69.8945C70.5013 34.5918 70.9932 34.0999 70.9932 33.4932C70.9932 32.8864 70.5013 32.3945 69.8945 32.3945Z" fill="#4C82DE"/>
<path d="M65.5 92.0137C63.6826 92.0137 62.2041 93.4921 62.2041 95.3096C62.2041 97.127 63.6826 98.6055 65.5 98.6055C67.3174 98.6055 68.7959 97.127 68.7959 95.3096C68.7959 93.4921 67.3174 92.0137 65.5 92.0137ZM65.5 96.4082C64.8941 96.4082 64.4014 95.9154 64.4014 95.3096C64.4014 94.7037 64.8941 94.2109 65.5 94.2109C66.1059 94.2109 66.5986 94.7037 66.5986 95.3096C66.5986 95.9154 66.1059 96.4082 65.5 96.4082Z" fill="#4C82DE"/>
<path d="M61.1055 34.5918C61.7122 34.5918 62.2041 34.0999 62.2041 33.4932C62.2041 32.8864 61.7122 32.3945 61.1055 32.3945C60.4987 32.3945 60.0068 32.8864 60.0068 33.4932C60.0068 34.0999 60.4987 34.5918 61.1055 34.5918Z" fill="#4C82DE"/>
</svg>
