<svg width="96" height="96" viewBox="0 0 96 96" fill="none" xmlns="http://www.w3.org/2000/svg">
<g clip-path="url(#clip0)">
<path d="M47.5117 43.9389C45.1637 43.2629 42.8157 42.9199 40.5317 42.9199C37.0047 42.9199 34.0617 43.7259 31.7797 44.7129C33.9797 36.6589 39.2647 22.7619 49.7927 21.1969C50.7677 21.0519 51.5667 20.3469 51.8327 19.3979L54.1337 11.1679C54.3277 10.4719 54.2127 9.72691 53.8157 9.12291C53.4187 8.51891 52.7807 8.11591 52.0657 8.01791C51.2887 7.91191 50.4967 7.85791 49.7117 7.85791C37.0747 7.85791 24.5597 21.0479 19.2787 39.9339C16.1787 51.0139 15.2697 67.6719 22.9057 78.1569C27.1787 84.0239 33.4127 87.1569 41.4347 87.4699C41.4677 87.4709 41.4997 87.4719 41.5327 87.4719C51.4307 87.4719 60.2077 80.8059 62.8777 71.2629C64.4727 65.5579 63.7517 59.5749 60.8457 54.4119C57.9707 49.3069 53.2357 45.5859 47.5117 43.9389Z" fill="#A0A0A0"/>
<path d="M92.471 54.4129C89.596 49.3069 84.861 45.5859 79.137 43.9389C76.789 43.2629 74.441 42.9199 72.158 42.9199C68.631 42.9199 65.687 43.7259 63.405 44.7129C65.605 36.6589 70.89 22.7619 81.419 21.1969C82.394 21.0519 83.192 20.3469 83.459 19.3979L85.76 11.1679C85.954 10.4719 85.839 9.72691 85.442 9.12291C85.046 8.51891 84.408 8.11591 83.692 8.01791C82.916 7.91191 82.124 7.85791 81.338 7.85791C68.701 7.85791 56.186 21.0479 50.904 39.9339C47.805 51.0139 46.896 67.6719 54.533 78.1589C58.805 84.0249 65.04 87.1589 73.061 87.4709C73.094 87.4719 73.126 87.4729 73.16 87.4729C83.057 87.4729 91.835 80.8069 94.505 71.2639C96.098 65.5589 95.376 59.5749 92.471 54.4129Z" fill="white"/>
</g>
<defs>
<clipPath id="clip0">
<rect width="95.333" height="95.332" fill="white"/>
</clipPath>
</defs>
</svg>
