<svg width="130" height="130" viewBox="0 0 130 130" fill="none" xmlns="http://www.w3.org/2000/svg">
<circle cx="65" cy="65" r="65" fill="white"/>
<path d="M75.9958 35.6682C65.334 35.6682 56.6599 44.3423 56.6599 55.0042C56.6599 65.666 65.334 74.3401 75.9958 74.3401C86.6577 74.3401 95.3318 65.666 95.3318 55.0042C95.3318 44.3421 86.6579 35.6682 75.9958 35.6682ZM75.9958 38.5979C85.0423 38.5979 92.4021 45.9577 92.4021 55.0042C92.4021 64.0506 85.0423 71.4104 75.9958 71.4104C66.9494 71.4104 59.5896 64.0506 59.5896 55.0042C59.5896 45.9577 66.9496 38.5979 75.9958 38.5979Z" fill="#4C82DE"/>
<path d="M84.9234 46.0768C85.4955 46.6488 85.4955 47.5764 84.9234 48.1484C84.3514 48.7204 83.4239 48.7204 82.8519 48.1482C81.0205 46.317 78.5858 45.3083 75.996 45.3083C73.4061 45.3083 70.9713 46.3169 69.1401 48.1482C68.854 48.4343 68.4791 48.5773 68.1043 48.5773C67.7294 48.5773 67.3544 48.4342 67.0685 48.1482C66.4965 47.5762 66.4963 46.6487 67.0685 46.0767C69.4531 43.6919 72.6236 42.3787 75.9961 42.3787C79.3682 42.3788 82.5387 43.692 84.9234 46.0768Z" fill="#4C82DE"/>
<path d="M28 96.8091C28 98.4628 28.6439 100.017 29.8132 101.187C30.9826 102.356 32.5372 103 34.1909 103C35.8445 103 37.3992 102.356 38.5684 101.187L56.1701 83.5851C56.9781 84.0508 57.8843 84.2847 58.7907 84.2847C60.134 84.2847 61.4772 83.7733 62.5 82.7507L65.4062 79.8443C68.6595 81.2365 72.239 82.0085 75.9958 82.0085C90.8859 82.0085 103 69.8945 103 55.0042C103 42.7533 94.7371 32.0157 82.906 28.8927C82.1244 28.6861 81.3224 29.1528 81.1158 29.9352C80.9093 30.7174 81.3761 31.5188 82.1584 31.7254C92.7046 34.5093 100.07 44.0819 100.07 55.0042C100.07 68.2789 89.2705 79.0788 75.9958 79.0788C62.721 79.0788 51.9212 68.2789 51.9212 55.0042C51.9212 44.0822 59.2866 34.5097 69.8326 31.7255C70.6148 31.519 71.0815 30.7174 70.875 29.9352C70.6684 29.153 69.8667 28.6867 69.0846 28.8928C57.254 32.0161 48.9914 42.7536 48.9914 55.0042C48.9914 58.7608 49.7633 62.3403 51.1555 65.5937L48.2491 68.5C46.5363 70.2128 46.2588 72.8246 47.4146 74.8299L29.8132 92.4316C28.6439 93.6008 28 95.1554 28 96.8091ZM57.1532 80.679L50.321 73.8468C49.4179 72.9439 49.4179 71.4745 50.321 70.5716L52.5325 68.3601C54.9353 72.5648 58.4352 76.0647 62.6399 78.4675L60.4284 80.6791C59.5253 81.5821 58.0561 81.5821 57.1532 80.679ZM30.9297 96.8091C30.9297 95.9381 31.2689 95.1191 31.8849 94.5031L49.3595 77.0286L53.9714 81.6405L36.4968 99.1151C35.8809 99.731 35.0619 100.07 34.1909 100.07C33.3197 100.07 32.5007 99.731 31.8849 99.1151C31.2689 98.4991 30.9297 97.6802 30.9297 96.8091Z" fill="#4C82DE"/>
<path d="M75.9956 30.9297C75.6104 30.9297 75.2323 30.7729 74.96 30.5005C74.6875 30.228 74.5308 29.8501 74.5308 29.4648C74.5308 29.0796 74.6875 28.7017 74.96 28.4292C75.2324 28.1567 75.6104 28 75.9956 28C76.3809 28 76.7588 28.1567 77.0313 28.4292C77.3037 28.7017 77.4604 29.0796 77.4604 29.4648C77.4604 29.8501 77.3037 30.228 77.0313 30.5005C76.7588 30.7729 76.3809 30.9297 75.9956 30.9297Z" fill="#4C82DE"/>
</svg>
