<svg width="174" height="27" viewBox="0 0 174 27" fill="none" xmlns="http://www.w3.org/2000/svg">
<g clip-path="url(#clip0)">
<path d="M13.5052 0.935253L10.1041 7.89053L2.49474 9.00947C1.13015 9.2091 0.583277 10.9059 1.57286 11.8777L7.07807 17.2886L5.77598 24.932C5.54161 26.3136 6.98432 27.3485 8.19265 26.7024L14.9999 23.0934L21.8072 26.7024C23.0156 27.3433 24.4583 26.3136 24.2239 24.932L22.9218 17.2886L28.427 11.8777C29.4166 10.9059 28.8697 9.2091 27.5051 9.00947L19.8958 7.89053L16.4947 0.935253C15.8854 -0.30451 14.1197 -0.320269 13.5052 0.935253Z" fill="#FFD700"/>
</g>
<g clip-path="url(#clip1)">
<path d="M49.5052 0.935253L46.1041 7.89053L38.4947 9.00947C37.1302 9.2091 36.5833 10.9059 37.5729 11.8777L43.0781 17.2886L41.776 24.932C41.5416 26.3136 42.9843 27.3485 44.1927 26.7024L50.9999 23.0934L57.8072 26.7024C59.0156 27.3433 60.4583 26.3136 60.2239 24.932L58.9218 17.2886L64.427 11.8777C65.4166 10.9059 64.8697 9.2091 63.5051 9.00947L55.8958 7.89053L52.4947 0.935253C51.8854 -0.30451 50.1197 -0.320269 49.5052 0.935253Z" fill="#FFD700"/>
</g>
<g clip-path="url(#clip2)">
<path d="M85.5052 0.935253L82.1041 7.89053L74.4947 9.00947C73.1302 9.2091 72.5833 10.9059 73.5729 11.8777L79.0781 17.2886L77.776 24.932C77.5416 26.3136 78.9843 27.3485 80.1927 26.7024L86.9999 23.0934L93.8072 26.7024C95.0156 27.3433 96.4583 26.3136 96.2239 24.932L94.9218 17.2886L100.427 11.8777C101.417 10.9059 100.87 9.2091 99.5051 9.00947L91.8958 7.89053L88.4947 0.935253C87.8854 -0.30451 86.1197 -0.320269 85.5052 0.935253Z" fill="#FFD700"/>
</g>
<g clip-path="url(#clip3)">
<path d="M121.505 0.935253L118.104 7.89053L110.495 9.00947C109.13 9.2091 108.583 10.9059 109.573 11.8777L115.078 17.2886L113.776 24.932C113.542 26.3136 114.984 27.3485 116.193 26.7024L123 23.0934L129.807 26.7024C131.016 27.3433 132.458 26.3136 132.224 24.932L130.922 17.2886L136.427 11.8777C137.417 10.9059 136.87 9.2091 135.505 9.00947L127.896 7.89053L124.495 0.935253C123.885 -0.30451 122.12 -0.320269 121.505 0.935253Z" fill="#FFD700"/>
</g>
<g clip-path="url(#clip4)">
<path d="M157.505 0.935253L154.104 7.89053L146.495 9.00947C145.13 9.2091 144.583 10.9059 145.573 11.8777L151.078 17.2886L149.776 24.932C149.542 26.3136 150.984 27.3485 152.193 26.7024L159 23.0934L165.807 26.7024C167.016 27.3433 168.458 26.3136 168.224 24.932L166.922 17.2886L172.427 11.8777C173.417 10.9059 172.87 9.2091 171.505 9.00947L163.896 7.89053L160.495 0.935253C159.885 -0.30451 158.12 -0.320269 157.505 0.935253Z" fill="#FFD700"/>
</g>
<defs>
<clipPath id="clip0">
<rect width="30" height="26.8966" fill="white"/>
</clipPath>
<clipPath id="clip1">
<rect width="30" height="26.8966" fill="white" transform="translate(36)"/>
</clipPath>
<clipPath id="clip2">
<rect width="30" height="26.8966" fill="white" transform="translate(72)"/>
</clipPath>
<clipPath id="clip3">
<rect width="30" height="26.8966" fill="white" transform="translate(108)"/>
</clipPath>
<clipPath id="clip4">
<rect width="30" height="26.8966" fill="white" transform="translate(144)"/>
</clipPath>
</defs>
</svg>
