<svg width="52" height="52" viewBox="0 0 52 52" fill="none" xmlns="http://www.w3.org/2000/svg">
<path d="M47.6837 26C47.6837 30.8821 46.0702 35.3874 43.3474 39.0117C39.3913 44.2775 33.5978 46.7814 26.5044 46.7814C14.5289 46.7814 5.3252 37.9755 5.3252 26C5.3252 19.0524 7.58395 12.868 12.6661 8.89952C16.3439 6.02763 20.9721 4.31641 26.0001 4.31641C37.9756 4.31641 47.6837 14.0245 47.6837 26Z" fill="#E3E0E4"/>
<path d="M44.0751 37.9812C40.1913 43.8292 33.5461 47.6835 26 47.6835C14.0248 47.6835 4.31641 37.9751 4.31641 25.9999C4.31641 18.4538 8.1707 11.8086 14.0187 7.9248C11.7386 11.3566 10.4102 15.476 10.4102 19.9061C10.4102 31.8814 20.1185 41.5897 32.0938 41.5897C36.5239 41.5897 40.6433 40.2613 44.0751 37.9812Z" fill="#D4CFD5"/>
<path d="M43.7406 1.12496L44.5273 2.69847C44.547 2.73777 44.5788 2.76966 44.6181 2.78927L46.1916 3.57597C46.3414 3.65082 46.3414 3.86451 46.1916 3.93936L44.6181 4.72606C44.5788 4.74577 44.5469 4.77756 44.5273 4.81686L43.7406 6.39037C43.6658 6.54007 43.4521 6.54007 43.3772 6.39037L42.5905 4.81696C42.5708 4.77766 42.5391 4.74577 42.4997 4.72617L40.9262 3.93946C40.7765 3.86461 40.7765 3.65092 40.9262 3.57607L42.4997 2.78937C42.5391 2.76966 42.5709 2.73788 42.5905 2.69857L43.3772 1.12506C43.4521 0.975257 43.6658 0.975257 43.7406 1.12496Z" fill="#5D91B9"/>
<path d="M6.92754 50.8748L6.14084 49.3012C6.12114 49.2619 6.08935 49.2301 6.05004 49.2104L4.47654 48.4237C4.32683 48.3489 4.32683 48.1352 4.47654 48.0604L6.05004 47.2737C6.08935 47.2539 6.12124 47.2222 6.14084 47.1829L6.92754 45.6093C7.0024 45.4596 7.21608 45.4596 7.29094 45.6093L8.07764 47.1829C8.09734 47.2222 8.12913 47.254 8.16844 47.2737L9.74194 48.0604C9.89165 48.1352 9.89165 48.3489 9.74194 48.4237L8.16844 49.2104C8.12913 49.2302 8.09724 49.2619 8.07764 49.3012L7.29094 50.8748C7.21608 51.0245 7.0024 51.0245 6.92754 50.8748Z" fill="#5D91B9"/>
<path d="M19.7029 22.75C19.7029 23.2829 19.595 23.7905 19.3997 24.2522C18.8137 25.6374 17.4594 26.0508 15.8608 26.0508C13.7293 26.0508 12.7383 25.0338 12.7383 22.9023C12.7383 21.3098 12.9486 19.7904 14.3253 19.2007C14.7914 19.0011 15.3046 18.8906 15.8436 18.8906C17.975 18.8906 19.7029 20.6185 19.7029 22.75Z" fill="#D4CFD5"/>
<path d="M29.3008 38.9493C29.3008 39.8315 29.0048 40.6445 28.5068 41.2945C27.8014 42.2151 26.6907 42.1312 25.4414 42.1312C23.3099 42.1312 21.582 41.0807 21.582 38.9492C21.582 36.8177 23.3099 35.0898 25.4414 35.0898C27.5729 35.0898 29.3008 36.8178 29.3008 38.9493Z" fill="#D4CFD5"/>
<path d="M28.5066 41.2942C27.8017 42.2154 26.6906 42.8085 25.4414 42.8085C23.3096 42.8085 21.582 41.0809 21.582 38.9491C21.582 38.9247 21.582 38.9004 21.583 38.876C23.6986 40.0511 26.0315 40.8829 28.5066 41.2942Z" fill="#C5BEC6"/>
<path d="M38.4411 17.5195C38.4411 17.9689 38.3141 18.3887 38.0942 18.745C37.6828 19.4114 37.0118 19.6924 36.171 19.6924C34.8809 19.6924 34.0015 18.831 34.0015 17.5409C34.0015 16.6073 34.3168 15.7803 35.1084 15.4063C35.4107 15.2635 35.7485 15.1836 36.1051 15.1836C37.3953 15.1836 38.4411 16.2294 38.4411 17.5195Z" fill="#D4CFD5"/>
<path d="M40.168 35.3944C40.168 35.7027 40.1083 35.997 39.9998 36.2664C39.6543 37.1246 38.8138 37.2907 37.832 37.2907C36.5419 37.2907 36.1714 36.7059 36.1714 35.4159C36.1714 34.287 36.2968 33.3239 37.3613 33.106C37.5133 33.0749 37.6708 33.0586 37.832 33.0586C39.1222 33.0585 40.168 34.1043 40.168 35.3944Z" fill="#D4CFD5"/>
<path d="M19.3934 24.2682C18.8043 25.6443 17.4362 26.6092 15.8437 26.6092C13.712 26.6092 11.9844 24.8816 11.9844 22.7498C11.9844 21.1573 12.9492 19.7893 14.3254 19.2002C14.1263 19.6664 14.0156 20.1793 14.0156 20.7186C14.0156 22.8503 15.7432 24.5779 17.875 24.5779C18.4143 24.5779 18.9272 24.4672 19.3934 24.2682Z" fill="#C5BEC6"/>
<path d="M38.2718 18.3913C37.9275 19.2495 37.0876 19.8558 36.1055 19.8558C34.8156 19.8558 33.7695 18.8097 33.7695 17.5198C33.7695 16.3803 34.5861 15.4307 35.6657 15.2266C35.556 15.4957 35.4961 15.7902 35.4961 16.098C35.4961 17.3878 36.5422 18.4339 37.832 18.4339C37.9823 18.4339 38.1296 18.4197 38.2718 18.3913Z" fill="#C5BEC6"/>
<path d="M39.9984 36.2662C39.6541 37.1245 38.8141 37.7308 37.832 37.7308C36.5422 37.7308 35.4961 36.6847 35.4961 35.3948C35.4961 34.2553 36.3127 33.3057 37.3923 33.1016C37.2826 33.3707 37.2227 33.6652 37.2227 33.973C37.2227 35.2628 38.2688 36.3089 39.5586 36.3089C39.7089 36.3089 39.8562 36.2947 39.9984 36.2662Z" fill="#C5BEC6"/>
<path d="M26.8633 12.7461C27.7327 12.7461 28.4375 12.0413 28.4375 11.1719C28.4375 10.3025 27.7327 9.59766 26.8633 9.59766C25.9939 9.59766 25.2891 10.3025 25.2891 11.1719C25.2891 12.0413 25.9939 12.7461 26.8633 12.7461Z" fill="#D4CFD5"/>
<path d="M25.7969 26.457C26.7785 26.457 27.5742 25.6613 27.5742 24.6797C27.5742 23.6981 26.7785 22.9023 25.7969 22.9023C24.8153 22.9023 24.0195 23.6981 24.0195 24.6797C24.0195 25.6613 24.8153 26.457 25.7969 26.457Z" fill="#D4CFD5"/>
<path d="M9.54688 31.7383C10.3602 31.7383 11.0195 31.079 11.0195 30.2656C11.0195 29.4523 10.3602 28.793 9.54688 28.793C8.73355 28.793 8.07422 29.4523 8.07422 30.2656C8.07422 31.079 8.73355 31.7383 9.54688 31.7383Z" fill="#C5BEC6"/>
<path d="M40.625 28.9961C41.4383 28.9961 42.0977 28.3368 42.0977 27.5234C42.0977 26.7101 41.4383 26.0508 40.625 26.0508C39.8117 26.0508 39.1523 26.7101 39.1523 27.5234C39.1523 28.3368 39.8117 28.9961 40.625 28.9961Z" fill="#D4CFD5"/>
<path d="M16.6058 15.9284C17.0169 15.9284 17.3502 15.5951 17.3502 15.1839C17.3502 14.7728 17.0169 14.4395 16.6058 14.4395C16.1946 14.4395 15.8613 14.7728 15.8613 15.1839C15.8613 15.5951 16.1946 15.9284 16.6058 15.9284Z" fill="#D4CFD5"/>
<path d="M15.4886 36.444C15.8997 36.444 16.233 36.1107 16.233 35.6995C16.233 35.2884 15.8997 34.9551 15.4886 34.9551C15.0774 34.9551 14.7441 35.2884 14.7441 35.6995C14.7441 36.1107 15.0774 36.444 15.4886 36.444Z" fill="#C5BEC6"/>
<path d="M35.0902 41.319C35.5013 41.319 35.8346 40.9857 35.8346 40.5745C35.8346 40.1634 35.5013 39.8301 35.0902 39.8301C34.679 39.8301 34.3457 40.1634 34.3457 40.5745C34.3457 40.9857 34.679 41.319 35.0902 41.319Z" fill="#D4CFD5"/>
<path d="M43.6214 22.9362C44.0326 22.9362 44.3659 22.6029 44.3659 22.1917C44.3659 21.7806 44.0326 21.4473 43.6214 21.4473C43.2103 21.4473 42.877 21.7806 42.877 22.1917C42.877 22.6029 43.2103 22.9362 43.6214 22.9362Z" fill="#D4CFD5"/>
<path d="M33.0589 11.6627C33.4701 11.6627 33.8034 11.3294 33.8034 10.9183C33.8034 10.5071 33.4701 10.1738 33.0589 10.1738C32.6478 10.1738 32.3145 10.5071 32.3145 10.9183C32.3145 11.3294 32.6478 11.6627 33.0589 11.6627Z" fill="#D4CFD5"/>
<path d="M44.861 13.8268C42.5775 10.2956 39.3648 7.48229 35.5704 5.69124C35.19 5.51168 34.736 5.67438 34.5565 6.05494C34.3768 6.43539 34.5397 6.88937 34.9202 7.06894C42.2111 10.5106 46.9221 17.9413 46.9221 25.9997C46.9221 27.9442 46.6556 29.8695 46.1302 31.7221C46.0153 32.1268 46.2504 32.548 46.655 32.6628C46.7246 32.6825 46.7945 32.6919 46.8633 32.6919C47.1954 32.6919 47.5006 32.4732 47.5957 32.1379C48.1597 30.15 48.4456 28.0849 48.4456 25.9997C48.4456 21.6622 47.2061 17.453 44.861 13.8268Z" fill="black"/>
<path d="M45.9314 34.587C45.5518 34.4069 45.0971 34.5689 44.9169 34.9491C41.4699 42.2223 34.0446 46.9219 26 46.9219C14.4636 46.9219 5.07812 37.5364 5.07812 26C5.07812 14.4636 14.4636 5.07812 26 5.07812C27.9149 5.07812 29.8115 5.3365 31.6376 5.84624C32.0433 5.95959 32.463 5.72254 32.5761 5.31741C32.6892 4.91217 32.4524 4.49201 32.0472 4.37897C30.0878 3.83195 28.0532 3.55469 26 3.55469C20.0047 3.55469 14.3681 5.88941 10.1287 10.1287C5.8893 14.368 3.55469 20.0047 3.55469 26C3.55469 31.9953 5.88941 37.6319 10.1287 41.8713C14.368 46.1107 20.0047 48.4453 26 48.4453C30.3312 48.4453 34.5356 47.2091 38.1585 44.8701C41.6861 42.5926 44.4993 39.3876 46.2936 35.6015C46.4738 35.2214 46.3116 34.7672 45.9314 34.587Z" fill="black"/>
<path d="M40.2219 4.43909L41.9923 5.32431L42.8774 7.09455C43.0065 7.35262 43.2702 7.51562 43.5587 7.51562C43.8472 7.51562 44.111 7.35262 44.24 7.09455L45.1251 5.32431L46.8955 4.43909C47.1535 4.31011 47.3166 4.04635 47.3166 3.75781C47.3166 3.46927 47.1536 3.20552 46.8955 3.07653L45.1251 2.19131L44.24 0.421078C44.1109 0.163008 43.8472 0 43.5587 0C43.2702 0 43.0064 0.163008 42.8774 0.421078L41.9923 2.19131L40.2219 3.07653C39.9639 3.20552 39.8008 3.46927 39.8008 3.75781C39.8008 4.04635 39.9639 4.31011 40.2219 4.43909ZM42.9007 3.44043C43.048 3.3667 43.1676 3.24726 43.2413 3.09979L43.5587 2.46502L43.8761 3.09979C43.9498 3.24726 44.0693 3.3667 44.2167 3.44043L44.8515 3.75781L44.2166 4.0752C44.0693 4.14893 43.9497 4.26837 43.876 4.41584L43.5586 5.0506L43.2412 4.41584C43.1675 4.26837 43.048 4.14893 42.9006 4.0752L42.2658 3.75781L42.9007 3.44043Z" fill="black"/>
<path d="M51.2383 38.2383H50.7305V37.7305C50.7305 37.3098 50.3895 36.9688 49.9688 36.9688C49.548 36.9688 49.207 37.3098 49.207 37.7305V38.2383H48.6992C48.2784 38.2383 47.9375 38.5793 47.9375 39C47.9375 39.4207 48.2784 39.7617 48.6992 39.7617H49.207V40.2695C49.207 40.6902 49.548 41.0312 49.9688 41.0312C50.3895 41.0312 50.7305 40.6902 50.7305 40.2695V39.7617H51.2383C51.6591 39.7617 52 39.4207 52 39C52 38.5793 51.6591 38.2383 51.2383 38.2383Z" fill="black"/>
<path d="M10.4461 47.5609L8.67567 46.6757L7.79055 44.9055C7.66167 44.6474 7.39791 44.4844 7.10937 44.4844C6.82084 44.4844 6.55708 44.6474 6.42809 44.9055L5.54298 46.6757L3.77254 47.5609C3.51457 47.6899 3.35156 47.9536 3.35156 48.2422C3.35156 48.5307 3.51457 48.7945 3.77264 48.9235L5.54308 49.8087L6.42819 51.5789C6.55718 51.837 6.82084 52 7.10937 52C7.39791 52 7.66167 51.837 7.79066 51.5789L8.67577 49.8087L10.4462 48.9235C10.7042 48.7945 10.8673 48.5307 10.8673 48.2422C10.8673 47.9536 10.7042 47.6899 10.4461 47.5609ZM7.7674 48.5596C7.62003 48.6333 7.50049 48.7527 7.42676 48.9002L7.10937 49.535L6.79199 48.9002C6.71826 48.7527 6.59882 48.6333 6.45135 48.5596L5.81659 48.2422L6.45145 47.9248C6.59882 47.8511 6.71836 47.7316 6.79209 47.5842L7.10948 46.9494L7.42686 47.5842C7.50059 47.7316 7.62003 47.8511 7.7675 47.9248L8.40216 48.2422L7.7674 48.5596Z" fill="black"/>
<path d="M4.0625 11.9844C4.0625 11.5637 3.72155 11.2227 3.30078 11.2227H2.79297V10.7148C2.79297 10.2942 2.45202 9.95312 2.03125 9.95312C1.61048 9.95312 1.26953 10.2942 1.26953 10.7148V11.2227H0.761719C0.340945 11.2227 0 11.5637 0 11.9844C0 12.405 0.340945 12.7461 0.761719 12.7461H1.26953V13.2539C1.26953 13.6746 1.61048 14.0156 2.03125 14.0156C2.45202 14.0156 2.79297 13.6746 2.79297 13.2539V12.7461H3.30078C3.72155 12.7461 4.0625 12.405 4.0625 11.9844Z" fill="black"/>
<path d="M20.4647 22.75C20.4647 20.2019 18.3917 18.1289 15.8436 18.1289C14.7327 18.1289 13.659 18.5289 12.8201 19.2552C12.502 19.5306 12.4675 20.0117 12.7428 20.3297C13.0183 20.6479 13.4993 20.6821 13.8172 20.407C14.3793 19.9204 15.0989 19.6523 15.8435 19.6523C17.5515 19.6523 18.9412 21.0419 18.9412 22.75C18.9412 24.4581 17.5515 25.8477 15.8435 25.8477C14.2491 25.8477 12.9244 24.6538 12.7622 23.0705C12.7194 22.6521 12.3466 22.3467 11.9268 22.3904C11.5083 22.4332 11.2038 22.8072 11.2467 23.2257C11.4888 25.589 13.465 27.3711 15.8436 27.3711C18.3917 27.3711 20.4647 25.2981 20.4647 22.75Z" fill="black"/>
<path d="M25.4414 42.0469C25.2769 42.0469 25.1119 42.034 24.9511 42.0084C24.5355 41.9421 24.1452 42.2258 24.0794 42.6412C24.0134 43.0567 24.2968 43.447 24.7122 43.5129C24.9518 43.551 25.197 43.5702 25.4414 43.5702C27.9895 43.5702 30.0625 41.4972 30.0625 38.9491C30.0625 36.401 27.9895 34.3281 25.4414 34.3281C22.8933 34.3281 20.8203 36.4011 20.8203 38.9492C20.8203 39.661 20.978 40.344 21.289 40.9792C21.4741 41.357 21.9302 41.5133 22.3081 41.3284C22.686 41.1435 22.8423 40.6872 22.6573 40.3093C22.4492 39.8844 22.3436 39.4269 22.3436 38.9492C22.3436 37.2411 23.7333 35.8516 25.4413 35.8516C27.1493 35.8516 28.539 37.2411 28.539 38.9492C28.539 40.6573 27.1494 42.0469 25.4414 42.0469Z" fill="black"/>
<path d="M36.1055 14.4219C34.3975 14.4219 33.0078 15.8115 33.0078 17.5195C33.0078 19.2276 34.3975 20.6172 36.1055 20.6172C37.8134 20.6172 39.2031 19.2276 39.2031 17.5195C39.2031 15.8115 37.8134 14.4219 36.1055 14.4219ZM36.1055 19.0938C35.2374 19.0938 34.5312 18.3876 34.5312 17.5195C34.5312 16.6515 35.2374 15.9453 36.1055 15.9453C36.9735 15.9453 37.6797 16.6515 37.6797 17.5195C37.6797 18.3876 36.9735 19.0938 36.1055 19.0938Z" fill="black"/>
<path d="M40.9297 35.3945C40.9297 33.6865 39.54 32.2969 37.832 32.2969C36.1241 32.2969 34.7344 33.6865 34.7344 35.3945C34.7344 37.1026 36.1241 38.4922 37.832 38.4922C39.54 38.4922 40.9297 37.1026 40.9297 35.3945ZM36.2578 35.3945C36.2578 34.5265 36.964 33.8203 37.832 33.8203C38.7001 33.8203 39.4062 34.5265 39.4062 35.3945C39.4062 36.2626 38.7001 36.9688 37.832 36.9688C36.964 36.9688 36.2578 36.2626 36.2578 35.3945Z" fill="black"/>
<path d="M29.1992 11.1719C29.1992 9.88386 28.1514 8.83594 26.8633 8.83594C25.5752 8.83594 24.5273 9.88386 24.5273 11.1719C24.5273 12.4599 25.5752 13.5078 26.8633 13.5078C28.1514 13.5078 29.1992 12.4599 29.1992 11.1719ZM26.0508 11.1719C26.0508 10.7239 26.4153 10.3594 26.8633 10.3594C27.3113 10.3594 27.6758 10.7239 27.6758 11.1719C27.6758 11.6199 27.3113 11.9844 26.8633 11.9844C26.4153 11.9844 26.0508 11.6199 26.0508 11.1719Z" fill="black"/>
<path d="M23.2578 24.6797C23.2578 26.0797 24.3968 27.2188 25.7969 27.2188C27.1969 27.2188 28.3359 26.0797 28.3359 24.6797C28.3359 23.2796 27.1969 22.1406 25.7969 22.1406C24.3968 22.1406 23.2578 23.2796 23.2578 24.6797ZM25.7969 23.6641C26.3569 23.6641 26.8125 24.1197 26.8125 24.6797C26.8125 25.2397 26.3569 25.6953 25.7969 25.6953C25.2369 25.6953 24.7812 25.2397 24.7812 24.6797C24.7812 24.1197 25.2369 23.6641 25.7969 23.6641Z" fill="black"/>
<path d="M9.54688 28.0312C8.31482 28.0312 7.3125 29.0336 7.3125 30.2656C7.3125 31.4977 8.31482 32.5 9.54688 32.5C10.7789 32.5 11.7812 31.4977 11.7812 30.2656C11.7812 29.0336 10.7789 28.0312 9.54688 28.0312ZM9.54688 30.9766C9.15495 30.9766 8.83594 30.6577 8.83594 30.2656C8.83594 29.8736 9.15495 29.5547 9.54688 29.5547C9.9388 29.5547 10.2578 29.8736 10.2578 30.2656C10.2578 30.6577 9.9388 30.9766 9.54688 30.9766Z" fill="black"/>
<path d="M42.8594 27.5234C42.8594 26.2914 41.8571 25.2891 40.625 25.2891C39.3929 25.2891 38.3906 26.2914 38.3906 27.5234C38.3906 28.7555 39.3929 29.7578 40.625 29.7578C41.8571 29.7578 42.8594 28.7555 42.8594 27.5234ZM40.625 28.2344C40.2331 28.2344 39.9141 27.9155 39.9141 27.5234C39.9141 27.1314 40.2331 26.8125 40.625 26.8125C41.0169 26.8125 41.3359 27.1314 41.3359 27.5234C41.3359 27.9155 41.0169 28.2344 40.625 28.2344Z" fill="black"/>
<path d="M16.6056 15.9455C17.026 15.9455 17.3669 15.6046 17.3669 15.1842C17.3669 14.7637 17.026 14.4229 16.6056 14.4229C16.1851 14.4229 15.8442 14.7637 15.8442 15.1842C15.8442 15.6046 16.1851 15.9455 16.6056 15.9455Z" fill="black"/>
<path d="M33.0587 11.6789C33.4791 11.6789 33.82 11.338 33.82 10.9176C33.82 10.4971 33.4791 10.1562 33.0587 10.1562C32.6382 10.1562 32.2974 10.4971 32.2974 10.9176C32.2974 11.338 32.6382 11.6789 33.0587 11.6789Z" fill="black"/>
<path d="M43.6212 22.9533C44.0416 22.9533 44.3825 22.6124 44.3825 22.192C44.3825 21.7715 44.0416 21.4307 43.6212 21.4307C43.2007 21.4307 42.8599 21.7715 42.8599 22.192C42.8599 22.6124 43.2007 22.9533 43.6212 22.9533Z" fill="black"/>
<path d="M35.0899 41.3351C35.5104 41.3351 35.8512 40.9943 35.8512 40.5738C35.8512 40.1534 35.5104 39.8125 35.0899 39.8125C34.6695 39.8125 34.3286 40.1534 34.3286 40.5738C34.3286 40.9943 34.6695 41.3351 35.0899 41.3351Z" fill="black"/>
<path d="M15.4884 36.4601C15.9088 36.4601 16.2497 36.1193 16.2497 35.6988C16.2497 35.2784 15.9088 34.9375 15.4884 34.9375C15.0679 34.9375 14.7271 35.2784 14.7271 35.6988C14.7271 36.1193 15.0679 36.4601 15.4884 36.4601Z" fill="black"/>
</svg>
