<svg width="52" height="52" viewBox="0 0 52 52" fill="none" xmlns="http://www.w3.org/2000/svg">
<g clip-path="url(#clip0)">
<path d="M48.4507 13.0352C48.1888 12.5848 47.6112 12.4319 47.1608 12.6938L42.5534 15.3572C42.1029 15.6191 41.9501 16.1967 42.212 16.6471C42.4739 17.0976 43.0515 17.2504 43.502 16.9885L48.1094 14.3252C48.5598 14.0632 48.7126 13.4857 48.4507 13.0352Z" fill="white"/>
<path d="M48.1094 37.6802L43.502 35.0168C43.0515 34.7549 42.4739 34.9078 42.212 35.3582C41.9501 35.8087 42.1029 36.3863 42.5534 36.6482L47.1608 39.3115C47.6112 39.5734 48.1888 39.4206 48.4507 38.9701C48.7126 38.5195 48.5598 37.9421 48.1094 37.6802Z" fill="white"/>
<path d="M26.0731 44.6434C25.5506 44.6046 25.0957 44.9966 25.0569 45.5191C25.0533 45.5659 25.0533 45.6128 25.0569 45.6596V50.9811C25.018 51.5036 25.4101 51.9584 25.9326 51.9973C26.4551 52.0361 26.91 51.644 26.9488 51.1215C26.9523 51.0747 26.9523 51.0278 26.9488 50.9811V45.6596C26.9875 45.1372 26.5954 44.6822 26.0731 44.6434Z" fill="white"/>
<path d="M9.44677 15.3572L4.83936 12.6938C4.38891 12.4319 3.81129 12.5848 3.54938 13.0352C3.28748 13.4857 3.44032 14.0633 3.89077 14.3252L8.49818 16.9885C8.94863 17.2504 9.52625 17.0976 9.78815 16.6471C10.0501 16.1966 9.89721 15.6191 9.44677 15.3572Z" fill="white"/>
<path d="M26.073 0.00261043C25.5505 -0.036219 25.0957 0.355854 25.0568 0.878357C25.0533 0.925135 25.0533 0.972043 25.0568 1.01882V6.34027C25.0597 6.86004 25.4804 7.28078 26.0002 7.28365C26.5241 7.28365 26.9488 6.859 26.9488 6.33506V1.01895C26.9875 0.496448 26.5954 0.0414398 26.073 0.00261043Z" fill="white"/>
<path d="M16.9834 8.49817L14.3253 3.89076C14.0634 3.44031 13.4857 3.28747 13.0353 3.54937C12.5849 3.81128 12.432 4.3889 12.6939 4.83934L15.352 9.44675C15.6139 9.8972 16.1916 10.05 16.642 9.78814C17.0924 9.5261 17.2453 8.94862 16.9834 8.49817Z" fill="white"/>
<path d="M26.1404 17.5827C26.0936 17.5792 26.0467 17.5792 25.9999 17.5827C21.3511 17.5827 17.5825 21.3512 17.5825 26.0001C17.5825 26.524 18.0072 26.9486 18.5311 26.9486C19.053 26.9458 19.4745 26.5219 19.4745 26.0001C19.4716 22.3991 22.3885 19.4775 25.9895 19.4746C25.993 19.4746 25.9964 19.4746 25.9999 19.4746C26.5224 19.5135 26.9773 19.1214 27.0161 18.5989C27.0549 18.0764 26.6629 17.6214 26.1404 17.5827Z" fill="white"/>
<path d="M51.8567 25.9271C51.8219 25.4587 51.4495 25.0861 50.9809 25.0514H45.6595C45.137 25.0125 44.6821 25.4046 44.6433 25.9271C44.6044 26.4496 44.9965 26.9045 45.519 26.9433C45.5658 26.9468 45.6128 26.9468 45.6596 26.9433H50.9811C51.5034 26.9046 51.8955 26.4496 51.8567 25.9271Z" fill="white"/>
<path d="M6.48094 25.0567C6.43416 25.0532 6.38725 25.0532 6.34048 25.0567H1.01902C0.496521 25.0955 0.104448 25.5505 0.143277 26.0729C0.178067 26.5413 0.550465 26.9139 1.01902 26.9486H6.34048C6.86298 26.9875 7.31786 26.5954 7.35669 26.0729C7.39551 25.5504 7.00344 25.0954 6.48094 25.0567Z" fill="white"/>
<path d="M26.0038 12.0788C18.3153 12.0778 12.0817 18.3096 12.0806 25.9981C12.08 29.6917 13.5475 33.2342 16.1596 35.8455C18.7668 38.4592 22.3082 39.926 25.9999 39.9213C33.6883 39.9224 39.922 33.6905 39.9231 26.002C39.9241 18.3135 33.6923 12.0799 26.0038 12.0788ZM34.5059 34.5217C29.8081 39.2194 22.1916 39.2194 17.4939 34.5217C15.2341 32.2619 13.9664 29.1958 13.9706 26.0001C13.966 22.8088 15.2341 19.7474 17.4939 17.4941V17.5097C22.1916 12.812 29.8081 12.812 34.5059 17.5097C39.2037 22.2074 39.2037 29.824 34.5059 34.5217Z" fill="white"/>
<path d="M39.3085 47.165C39.3077 47.1635 39.3069 47.1621 39.306 47.1608L36.6427 42.5534C36.3808 42.1029 35.8031 41.9501 35.3527 42.212C34.9022 42.4739 34.7494 43.0515 35.0113 43.502L37.6746 48.1094C37.9355 48.5593 38.5114 48.7132 38.962 48.4534C39.4135 48.1931 39.5687 47.6163 39.3085 47.165Z" fill="white"/>
<path d="M38.9958 3.54937C38.5454 3.28747 37.9677 3.44031 37.7058 3.89076L35.0425 8.49817C34.7788 8.94757 34.9294 9.52558 35.3787 9.78918C35.3796 9.7897 35.3804 9.79022 35.3813 9.79075C35.8313 10.0532 36.409 9.90111 36.6714 9.45092C36.6722 9.44949 36.6731 9.44806 36.6739 9.44675L39.3372 4.83934C39.5991 4.38877 39.4463 3.81128 38.9958 3.54937Z" fill="white"/>
<path d="M16.6472 42.212C16.1968 41.9501 15.6192 42.1029 15.3572 42.5534L12.6939 47.1608C12.432 47.6112 12.5849 48.1889 13.0353 48.4508C13.4857 48.7127 14.0634 48.5598 14.3253 48.1094L16.9886 43.502C17.2505 43.0514 17.0977 42.4739 16.6472 42.212Z" fill="white"/>
<path d="M9.78815 35.353C9.52625 34.9026 8.94863 34.7497 8.49818 35.0116L3.89077 37.6749C3.44032 37.9369 3.28748 38.5145 3.54938 38.9649C3.81129 39.4154 4.38891 39.5682 4.83936 39.3063L9.44677 36.643C9.89721 36.3809 10.0501 35.8034 9.78815 35.353Z" fill="white"/>
</g>
<defs>
<clipPath id="clip0">
<rect width="52" height="52" fill="white"/>
</clipPath>
</defs>
</svg>
