<svg width="64" height="82" viewBox="0 0 64 82" fill="none" xmlns="http://www.w3.org/2000/svg">
<path fill-rule="evenodd" clip-rule="evenodd" d="M13.5206 42.0201C13.4778 50.1679 19.4523 55.0252 28.9863 52.8168V31.2235C19.3318 28.2833 13.561 34.2317 13.5206 42.0201ZM29.278 6.10352e-05H42.4092V62.1546C29.8225 64.2123 17.7676 65.5175 9.14356 60.6953C-1.96061 54.4869 -2.8533 34.7578 5.93345 25.9708C10.3885 21.5161 19.3572 18.3799 28.9863 20.4265V0.875673C28.9612 0.46132 28.9379 0.0488237 29.278 6.10352e-05" fill="white"/>
<path fill-rule="evenodd" clip-rule="evenodd" d="M63.7103 13.7148H50.5791V0H63.7103V13.7148V13.7148Z" fill="white"/>
<path fill-rule="evenodd" clip-rule="evenodd" d="M63.7106 20.6595C63.6957 30.329 63.6979 37.2773 63.697 49.0244C63.1391 60.5687 63.2689 69.7617 59.0419 75.2856C58.2082 76.3748 56.4378 77.9639 54.9565 79.0793C53.7125 80.0158 51.3417 81.9148 49.9958 81.9974C48.6391 82.0807 45.1535 80.1139 43.5759 79.371C41.5044 78.3954 39.5896 77.0998 37.4482 76.4531C42.4431 73.3579 47.1845 71.0374 49.1202 64.7808C50.8037 59.3396 50.5794 51.4549 50.5794 43.7708C50.5794 36.1833 50.6133 27.3621 50.6133 20.663L63.7106 20.66V20.6595Z" fill="white"/>
</svg>
