<svg width="82" height="82" viewBox="0 0 82 82" fill="none" xmlns="http://www.w3.org/2000/svg">
<path d="M81.8832 40.8985C81.8832 63.4848 63.5725 81.7961 40.9847 81.7961C18.3965 81.7961 0.0859375 63.4848 0.0859375 40.8985C0.0859375 18.3108 18.3967 0 40.9847 0C63.5727 0 81.8832 18.3108 81.8832 40.8985Z" fill="white"/>
<path d="M13.1754 35.437C10.1582 35.437 7.71387 37.8816 7.71387 40.8985C7.71387 43.914 10.1582 46.3584 13.1754 46.3584C16.1909 46.3584 18.6353 43.914 18.6353 40.8985C18.6353 37.8816 16.1909 35.437 13.1754 35.437ZM52.1622 60.2544C49.5505 61.7628 48.655 65.1005 50.1637 67.7108C51.6704 70.3226 55.0081 71.2178 57.6199 69.7094C60.2314 68.2026 61.1269 64.8649 59.6184 62.2529C58.1116 59.6429 54.772 58.7476 52.1622 60.2544ZM25.0361 40.8985C25.0361 35.5024 27.7163 30.7351 31.8175 27.8483L27.8255 21.162C23.0481 24.3554 19.4935 29.2353 18.0163 34.9505C19.74 36.357 20.8432 38.4982 20.8432 40.8983C20.8432 43.297 19.74 45.4381 18.0163 46.8446C19.4916 52.5615 23.0462 57.4416 27.8255 60.635L31.8175 53.9471C27.7163 51.062 25.0361 46.2949 25.0361 40.8985ZM40.9852 24.9477C49.3174 24.9477 56.1535 31.3363 56.8711 39.4836L64.6517 39.3689C64.2689 33.354 61.6413 27.9543 57.6038 23.9837C55.5276 24.7681 53.1294 24.6481 51.0565 23.4532C48.9801 22.2549 47.6782 20.2336 47.3223 18.0393C45.3043 17.4824 43.1804 17.1774 40.9847 17.1774C37.2101 17.1774 33.6413 18.064 30.4726 19.6324L34.2667 26.4314C36.3078 25.4816 38.5848 24.9477 40.9852 24.9477ZM40.9852 56.8476C38.5848 56.8476 36.3078 56.3136 34.267 55.3639L30.4728 62.1627C33.6415 63.733 37.2103 64.6198 40.9852 64.6198C43.1809 64.6198 45.3047 64.3147 47.3225 63.7561C47.6784 61.5618 48.9808 59.5423 51.0568 58.3419C53.131 57.1451 55.5278 57.0273 57.604 57.8117C61.6415 53.8411 64.2691 48.4413 64.6519 42.4265L56.8694 42.3118C56.1535 50.4613 49.3177 56.8476 40.9852 56.8476ZM52.1603 21.5393C54.772 23.0475 58.11 22.1542 59.6167 19.5425C61.1252 16.9307 60.2319 13.5928 57.6199 12.0841C55.0081 10.5773 51.6704 11.4725 50.1615 14.0843C48.655 16.6946 49.5502 20.0325 52.1603 21.5393Z" fill="#1E2629"/>
</svg>
