<svg width="157" height="70" viewBox="0 0 157 70" fill="none" xmlns="http://www.w3.org/2000/svg">
<g clip-path="url(#clip0)">
<path fill-rule="evenodd" clip-rule="evenodd" d="M102.955 10.0538C96.5829 15.2758 89.6382 19.5213 82.2715 22.6783C78.3063 15.2723 73.3225 8.27927 67.4262 1.82877C70.9935 0.62263 74.7321 0.00502517 78.4965 1.5934e-05C87.6512 -0.0087549 96.4402 3.60369 102.957 10.0538H102.955ZM79.4751 29.9863C80.4228 32.0232 81.3002 34.0924 82.1057 36.19C70.3499 40.096 60.0734 48.2178 53.6626 59.5718C47.253 53.0734 43.6434 44.3098 43.6111 35.168C56.1589 35.868 68.2897 34.0025 79.4769 29.988L79.4751 29.9863ZM84.8829 27.8705C85.9045 30.0937 86.8471 32.3527 87.7089 34.643C96.2195 32.8565 105.044 33.2843 113.343 35.8855C113.349 35.7665 113.356 35.6493 113.364 35.5338C113.377 35.357 113.389 35.1803 113.389 35C113.389 27.3315 110.901 20.2598 106.73 14.4918C100.106 19.9523 92.7521 24.4556 84.8829 27.8705ZM94.2837 66.1815C93.8354 57.3965 92.3177 48.6605 89.6435 40.1993C97.3155 38.7118 105.221 39.2508 112.719 41.8058C110.619 52.4808 103.676 61.3883 94.2837 66.1833V66.1815ZM76.8079 24.7713C72.7695 17.3863 67.7141 10.5175 61.7707 4.28052C57.1178 6.83755 53.1074 10.4254 50.0446 14.7713C46.9819 19.1171 44.9474 24.1065 44.096 29.3598C55.3547 29.967 66.4214 28.392 76.8079 24.7713ZM80.7957 42.8575C81.8644 42.4268 82.9491 42.0368 84.0473 41.6885C86.7861 50.2705 88.2776 59.283 88.5602 68.5073C85.296 69.4965 81.9046 69.9995 78.4947 70C71.1954 70.0025 64.0812 67.695 58.165 63.406C63.0878 54.138 70.9919 46.9298 80.7957 42.8575Z" fill="white" fill-opacity="0.7"/>
<path d="M18.8747 8.00974C19.7703 6.58696 20.4847 5.05721 21.0012 3.45624C21.0012 3.45624 19.0526 4.11424 16.661 6.02699C14.4735 8.01499 11.9423 11.48 12.1202 16.016C15.3911 13.3805 17.5489 10.556 18.873 8.00974H18.8747ZM6.38624 34.2037L6.26064 36.0552C6.23796 36.449 6.50486 36.799 6.89736 36.8095C7.27416 36.841 7.61258 36.5207 7.63526 36.1392L7.76261 34.293C10.449 32.6655 12.2929 30.3397 13.4512 28.2695C14.0374 27.1197 14.5607 26.0855 14.9375 25.3435C15.2428 24.556 15.4417 24.0782 15.4417 24.0782C15.4417 24.0782 13.6955 24.248 11.5463 25.6567C10.0252 26.8205 7.98241 28.9467 7.22532 32.3312C7.22008 32.3312 7.21659 32.326 7.20962 32.3242C7.23578 28.8347 6.81537 26.0592 5.94664 23.849C5.15466 21.2415 4.01031 19.6315 4.01031 19.6315L3.53233 21.2852C3.27938 22.3212 2.94968 23.7422 3.04737 25.403C3.06831 28.4095 3.82191 31.9375 6.38624 34.2037Z" fill="white" fill-opacity="0.7"/>
<path d="M8.06611 24.6155C8.0344 24.7047 8.02104 24.7993 8.02685 24.8938C8.03267 24.9883 8.05752 25.0806 8.09992 25.1652C8.14232 25.2498 8.20138 25.3249 8.27352 25.3859C8.34567 25.4469 8.4294 25.4926 8.51966 25.5202C8.87553 25.6357 9.24535 25.4047 9.38142 25.0425L9.96057 23.3362C12.8878 22.4542 14.7962 20.51 16.4534 18.9157C17.1645 18.1543 17.7958 17.3216 18.3374 16.4307C18.7875 15.7797 19.0823 15.3982 19.0823 15.3982C19.0823 15.3982 17.2715 15.071 15.1922 16.0685C13.4582 16.828 11.2776 18.3697 9.85416 21.2607C9.84021 21.2555 9.82799 21.2502 9.81404 21.2485C10.5328 18.053 10.5554 15.4 10.2641 13.2055C9.81055 10.4965 9.19127 8.82524 9.19127 8.82524C8.95228 8.58899 4.57722 17.3442 8.61735 22.9652L8.06611 24.6155ZM12.0923 57.1235C12.5999 57.8655 13.5437 59.213 13.6169 59.1412C13.903 59.4387 14.3566 59.4702 14.6252 59.2007C14.7565 59.0692 14.8318 58.8917 14.835 58.7055C14.8383 58.5194 14.7693 58.3393 14.6427 58.2032C14.5694 58.2575 13.6222 56.9152 13.1442 56.231C15.6126 48.4855 14.0862 42.2975 14.3548 41.881C14.3548 41.881 12.3923 42.959 11.3195 45.4335C10.1751 47.593 9.55237 51.6022 11.9545 55.6237C11.937 55.636 11.9213 55.6412 11.9074 55.6535C11.8812 55.671 11.8673 55.7007 11.8481 55.7217C9.04823 51.9837 6.66183 49.28 4.43417 47.1642C1.80006 44.8437 0.0207276 43.659 0.0224721 43.6485C-0.122317 43.5907 0.401016 47.131 2.51703 50.8917C4.46557 54.3287 8.12542 57.2775 12.0923 57.1217V57.1235Z" fill="white" fill-opacity="0.7"/>
<path d="M20.7102 65.2995L25.1707 68.1047C25.5092 68.3322 25.947 68.1572 26.1023 67.8177C26.2662 67.438 26.1023 67.0477 25.783 66.8342L21.3835 64.0552C21.1917 59.7747 20.0421 56.294 19.0634 53.844C18.1563 51.1245 17.0695 49.3762 17.1445 49.2975C17.1445 49.2975 15.6373 51.0405 15.4385 54.0365C15.0076 56.8575 16.2252 60.956 20.2688 64.0395C20.2409 64.071 20.2095 64.0955 20.1851 64.1322C15.974 61.432 12.2339 59.9182 9.31722 58.5987C5.94695 57.3475 3.63731 56.833 3.63731 56.833C3.63731 56.833 3.95131 57.715 4.87586 58.9155C5.81786 60.0705 7.08258 61.7155 8.82703 63.077C12.1851 65.6582 16.8619 67.1965 20.7102 65.2995ZM7.17155 46.3225L7.8484 48.8162C7.9583 49.21 8.32986 49.4445 8.68573 49.2992C8.86183 49.2231 9.00512 49.0865 9.08985 48.914C9.17458 48.7414 9.1952 48.5442 9.14801 48.3577L8.49907 45.9602C10.9744 43.0902 12.5514 39.9875 13.2789 37.4552C14.3831 34.6902 14.3988 32.4572 14.5244 32.424C14.5244 32.424 12.5305 32.949 10.5907 35.049C8.7904 36.8637 6.94128 40.2885 7.65302 44.9295C7.60417 44.926 7.55533 44.9155 7.50648 44.9242C6.32724 40.4005 4.92296 36.9512 3.49426 34.363C1.82308 31.4825 0.226917 29.8375 0.226917 29.8375C0.226917 29.8375 0.0315394 30.6232 0.0664283 31.934C0.0594505 33.236 0.146673 35.056 0.457184 36.981C1.34336 40.6805 3.2797 44.8857 7.1733 46.3242L7.17155 46.3225ZM138.125 8.00974C137.23 6.58696 136.515 5.05721 135.999 3.45624C135.999 3.45624 137.947 4.11424 140.339 6.02699C142.527 8.01674 145.058 11.4817 144.88 16.016C141.609 13.3805 139.451 10.556 138.127 8.00974H138.125ZM150.612 34.2037L150.739 36.0552C150.762 36.449 150.495 36.799 150.103 36.8095C149.726 36.841 149.387 36.5207 149.365 36.1392L149.237 34.293C146.551 32.6655 144.707 30.3397 143.549 28.2695C142.963 27.1197 142.439 26.0855 142.062 25.3435C141.757 24.556 141.558 24.0782 141.558 24.0782C141.558 24.0782 143.306 24.248 145.454 25.6567C146.973 26.8205 149.018 28.9467 149.775 32.3312C149.78 32.3312 149.783 32.326 149.79 32.3242C149.766 28.8347 150.185 26.0592 151.053 23.849C151.845 21.2415 152.99 19.6315 152.99 19.6315L153.468 21.2852C153.721 22.3212 154.05 23.7422 153.953 25.403C153.932 28.4095 153.178 31.9375 150.612 34.2037Z" fill="white" fill-opacity="0.7"/>
<path d="M148.934 24.6155C148.965 24.7047 148.979 24.7993 148.973 24.8938C148.967 24.9883 148.942 25.0806 148.9 25.1652C148.857 25.2498 148.798 25.3249 148.726 25.3859C148.654 25.4469 148.57 25.4926 148.48 25.5202C148.124 25.6357 147.754 25.4047 147.618 25.0425L147.039 23.3362C144.112 22.4542 142.204 20.51 140.546 18.9157C139.835 18.1543 139.204 17.3216 138.662 16.4307C138.212 15.7797 137.917 15.3982 137.917 15.3982C137.917 15.3982 139.728 15.071 141.808 16.0685C143.542 16.828 145.722 18.3697 147.146 21.2607C147.16 21.2555 147.172 21.2502 147.186 21.2485C146.467 18.053 146.444 15.4 146.736 13.2055C147.189 10.4965 147.808 8.82524 147.808 8.82524C148.047 8.58899 152.423 17.3442 148.382 22.9652L148.934 24.6155ZM144.907 57.1235C144.4 57.8655 143.456 59.213 143.383 59.1412C143.097 59.4387 142.643 59.4702 142.375 59.2007C142.243 59.0692 142.168 58.8917 142.165 58.7055C142.161 58.5194 142.23 58.3393 142.357 58.2032C142.43 58.2575 143.378 56.9152 143.856 56.231C141.387 48.4855 142.914 42.2975 142.643 41.881C142.643 41.881 144.607 42.959 145.679 45.4335C146.823 47.593 147.447 51.6022 145.045 55.6237C145.063 55.636 145.078 55.6412 145.092 55.6535C145.119 55.671 145.131 55.7007 145.152 55.7217C147.952 51.9837 150.338 49.28 152.566 47.1642C155.2 44.8437 156.979 43.659 156.977 43.6485C157.122 43.5907 156.599 47.131 154.483 50.8917C152.534 54.3287 148.874 57.2775 144.907 57.1217V57.1235Z" fill="white" fill-opacity="0.7"/>
<path d="M136.29 65.2995L131.829 68.1047C131.491 68.3322 131.053 68.1572 130.898 67.8177C130.734 67.438 130.898 67.0477 131.217 66.8342L135.616 64.0552C135.808 59.7747 136.958 56.294 137.937 53.844C138.844 51.1245 139.93 49.3762 139.855 49.2975C139.855 49.2975 141.363 51.0405 141.562 54.0365C141.992 56.8575 140.775 60.956 136.731 64.0395C136.759 64.071 136.79 64.0955 136.815 64.1322C141.026 61.432 144.766 59.9182 147.683 58.5987C151.053 57.3475 153.363 56.833 153.363 56.833C153.363 56.833 153.049 57.715 152.124 58.9155C151.182 60.0705 149.917 61.7155 148.173 63.077C144.815 65.6582 140.138 67.1965 136.29 65.2995ZM149.827 46.3225L149.152 48.8162C149.042 49.21 148.67 49.4445 148.314 49.2992C148.138 49.2231 147.995 49.0865 147.91 48.9139C147.825 48.7414 147.805 48.5442 147.852 48.3577L148.501 45.9602C146.026 43.0902 144.449 39.9875 143.721 37.4552C142.617 34.6902 142.601 32.4572 142.476 32.424C142.476 32.424 144.47 32.949 146.409 35.049C148.21 36.8637 150.059 40.2885 149.345 44.9295C149.396 44.926 149.445 44.9155 149.494 44.9242C150.673 40.4005 152.077 36.9512 153.506 34.363C155.179 31.4825 156.773 29.8375 156.773 29.8375C156.773 29.8375 156.968 30.6232 156.934 31.934C156.941 33.236 156.853 35.056 156.543 36.981C155.657 40.6805 153.72 44.8857 149.827 46.3242V46.3225Z" fill="white" fill-opacity="0.7"/>
</g>
<defs>
<clipPath id="clip0">
<rect width="157" height="70" fill="white"/>
</clipPath>
</defs>
</svg>
