<svg width="165" height="70" viewBox="0 0 165 70" fill="none" xmlns="http://www.w3.org/2000/svg">
<path fill-rule="evenodd" clip-rule="evenodd" d="M52.8127 0H112.189C115.031 0 117.333 2.24553 117.333 5.01421V64.9821C117.333 67.7526 115.032 70 112.189 70H52.8127C49.971 70 47.6665 67.7545 47.6665 64.9821V5.01421C47.6665 2.24737 49.971 0 52.8127 0ZM91.2852 37.7558C93.6282 39.6624 96.2022 40.8321 98.954 40.8321C100.738 40.8258 102.447 40.1113 103.709 38.8443C104.971 37.5773 105.684 35.8604 105.692 34.0679C105.691 32.2719 104.981 30.5496 103.718 29.2788C102.455 28.008 100.741 27.2924 98.954 27.2889C94.0003 27.2889 92.3907 32.1005 91.881 34.9668L91.8553 35.0645L91.287 37.7539L91.2852 37.7558ZM85.7247 31.3637C87.7175 24.5589 92.6253 20.4216 98.954 20.4216C106.423 20.4216 112.502 26.5392 112.51 34.0384C112.51 41.5542 106.429 47.7105 98.9595 47.7105C95.4652 47.7105 92.4182 46.6403 89.7672 44.9326L86.7458 59.2495H79.7682L83.9427 39.5113C81.9718 37.0171 80.3493 34.2134 79.0257 31.4355V34.4271C79.0257 41.7292 73.115 47.7234 65.8587 47.7234C58.6005 47.7234 52.6917 41.7292 52.7155 34.4271V16.5955H59.5282V34.4271C59.5296 36.1173 60.198 37.7379 61.3867 38.9337C62.5754 40.1295 64.1876 40.8029 65.8697 40.8063C67.5518 40.8024 69.1638 40.1289 70.3527 38.9333C71.5417 37.7376 72.2106 36.1173 72.213 34.4271V16.5955H79.022C80.3732 21.245 82.6758 26.7639 85.7228 31.3618L85.7247 31.3637Z" fill="white" fill-opacity="0.7"/>
<path d="M19.8364 4.98292C21.3947 2.5016 22.0712 0.189758 22.0712 0.189758C22.0712 0.189758 20.0234 0.88239 17.5081 2.89213C15.2109 4.98844 12.5507 8.63765 12.7377 13.4105C16.1752 10.6345 18.4431 7.66318 19.8346 4.98292H19.8364ZM6.71157 32.5537L6.57957 34.5045C6.55573 34.919 6.83623 35.2874 7.24873 35.2966C7.64473 35.3298 8.0004 34.9926 8.02423 34.5929L8.15807 32.6477C10.9814 30.9345 12.9192 28.4882 14.1366 26.3071C14.7526 25.0987 15.3026 24.01 15.6986 23.229C16.0194 22.4 16.2284 21.8971 16.2284 21.8971C16.2284 21.8971 14.3932 22.0758 12.1346 23.5569C10.5359 24.7837 8.38907 27.02 7.5934 30.5827C7.5879 30.5827 7.58423 30.5771 7.5769 30.5771C7.6044 26.9021 7.16257 23.9787 6.24957 21.6558C5.41723 18.9111 4.21457 17.2145 4.21457 17.2145L3.71223 18.9571C3.4464 20.0477 3.0999 21.5416 3.20257 23.2898C3.22457 26.4563 4.01657 30.17 6.71157 32.5555V32.5537Z" fill="white" fill-opacity="0.7"/>
<path d="M8.47712 22.4608C8.4435 22.5547 8.42924 22.6546 8.4352 22.7543C8.44117 22.8539 8.46723 22.9513 8.51181 23.0406C8.55639 23.1298 8.61855 23.209 8.69453 23.2734C8.77051 23.3378 8.85871 23.3859 8.95378 23.415C9.32778 23.5366 9.71645 23.2916 9.85945 22.9103L10.4681 21.116C13.5445 20.1876 15.5501 18.1392 17.2918 16.461C18.0392 15.6595 18.7027 14.783 19.2718 13.8453C19.7448 13.1618 20.0546 12.7584 20.0546 12.7584C20.0546 12.7584 18.1516 12.4139 15.9663 13.4639C14.1439 14.2634 11.8523 15.8881 10.3563 18.9295L10.3141 18.9166C11.0695 15.5547 11.0933 12.7621 10.7871 10.4503C10.3105 7.59867 9.65962 5.83946 9.65962 5.83946C9.40845 5.59078 4.81045 14.8068 9.05645 20.7237L8.47712 22.4608ZM12.7085 56.6816C13.242 57.4608 14.2338 58.8792 14.3108 58.8055C14.6115 59.1187 15.0881 59.1518 15.3705 58.8663C15.5079 58.7279 15.5867 58.5414 15.5901 58.3459C15.5935 58.1505 15.5213 57.9613 15.3888 57.8181C15.3118 57.8734 14.3163 56.4624 13.814 55.7402C16.4081 47.5871 14.804 41.0734 15.0863 40.635C15.0863 40.635 13.0238 41.7697 11.8963 44.3745C10.6936 46.6476 10.0391 50.8679 12.5636 55.1029C12.5453 55.1158 12.5288 55.1213 12.5141 55.1342C12.4866 55.1526 12.472 55.1821 12.4518 55.2042C9.50928 51.2713 7.00128 48.4234 4.66012 46.1963C1.89178 43.7555 0.0217838 42.5084 0.0236172 42.4974C-0.12855 42.4347 0.42145 46.1595 2.64528 50.12C4.69312 53.7397 8.53945 56.8437 12.7085 56.6797V56.6816Z" fill="white" fill-opacity="0.7"/>
<path d="M21.7655 65.2861L26.4533 68.239C26.809 68.4784 27.2691 68.2942 27.4323 67.9387C27.6047 67.539 27.4323 67.1263 27.0968 66.9016L22.4732 63.9763C22.2715 59.4705 21.0633 55.8084 20.0348 53.2295C19.0815 50.3669 17.9393 48.5266 18.0182 48.4419C18.0182 48.4419 16.4342 50.2766 16.2251 53.4321C15.7723 56.3998 17.052 60.7158 21.3017 63.9616C21.2723 63.9929 21.2393 64.0187 21.2136 64.0574C16.788 61.215 12.8573 59.6234 9.79198 58.2326C6.24998 56.9155 3.82265 56.3758 3.82265 56.3758C3.82265 56.3758 4.15265 57.3024 5.12432 58.5679C6.11432 59.7837 7.44348 61.5153 9.27682 62.9484C12.806 65.6655 17.7211 67.2829 21.7655 65.2879V65.2861ZM7.53698 45.3121L8.24831 47.9371C8.36382 48.3516 8.75432 48.5966 9.12831 48.4455C9.31378 48.3654 9.46464 48.2213 9.55372 48.0392C9.6428 47.8572 9.66423 47.6492 9.61415 47.4526L8.93215 44.929C11.5336 41.9098 13.191 38.6419 13.9555 35.9763C15.116 33.0676 15.1325 30.7171 15.2645 30.6803C15.2645 30.6803 13.169 31.2329 11.1303 33.4434C9.23832 35.3537 7.29498 38.9587 8.04298 43.844C7.99165 43.8403 7.94032 43.8292 7.88898 43.8384C6.64965 39.0766 5.17382 35.4458 3.67232 32.7232C1.91598 29.6892 0.238481 27.9595 0.238481 27.9595C0.238481 27.9595 0.033148 28.7848 0.0698147 30.1645C0.0624814 31.535 0.154148 33.4527 0.480481 35.479C1.41181 39.3732 3.44681 43.7979 7.53882 45.3121H7.53698ZM145.163 4.98292C144.223 3.48516 143.473 1.87491 142.93 0.189758C142.93 0.189758 144.978 0.88239 147.492 2.89397C149.791 4.98844 152.451 8.63765 152.264 13.4105C148.827 10.6345 146.559 7.66318 145.167 4.98292H145.163ZM158.286 32.5537L158.42 34.5045C158.444 34.919 158.164 35.2874 157.751 35.2966C157.355 35.3298 156.999 34.9926 156.976 34.5929L156.842 32.6476C154.019 30.9345 152.081 28.4882 150.863 26.3071C150.247 25.0987 149.697 24.01 149.301 23.229C148.98 22.4 148.771 21.8971 148.771 21.8971C148.771 21.8971 150.608 22.0758 152.865 23.5569C154.462 24.7837 156.611 27.02 157.406 30.5826C157.412 30.5826 157.416 30.5771 157.423 30.5771C157.397 26.9021 157.837 23.9787 158.75 21.6558C159.583 18.9111 160.785 17.2145 160.785 17.2145L161.288 18.9571C161.553 20.0477 161.9 21.5416 161.797 23.2898C161.775 26.4563 160.983 30.17 158.286 32.5555V32.5537Z" fill="white" fill-opacity="0.7"/>
<path d="M156.523 22.4608C156.556 22.5547 156.571 22.6546 156.565 22.7543C156.559 22.8539 156.533 22.9513 156.488 23.0406C156.444 23.1298 156.381 23.209 156.305 23.2734C156.229 23.3378 156.141 23.3859 156.046 23.415C155.672 23.5366 155.283 23.2916 155.14 22.9103L154.532 21.116C151.455 20.1876 149.45 18.1392 147.708 16.461C146.961 15.6595 146.297 14.783 145.728 13.8453C145.255 13.1618 144.945 12.7584 144.945 12.7584C144.945 12.7584 146.848 12.4139 149.034 13.4639C150.856 14.2634 153.148 15.8881 154.644 18.9295L154.686 18.9166C153.93 15.5547 153.907 12.7621 154.213 10.4503C154.689 7.59867 155.34 5.83946 155.34 5.83946C155.592 5.59078 160.189 14.8068 155.943 20.7237L156.523 22.4608ZM152.291 56.6816C151.758 57.4608 150.766 58.8792 150.689 58.8055C150.388 59.1187 149.912 59.1518 149.629 58.8663C149.492 58.7279 149.413 58.5414 149.41 58.3459C149.406 58.1505 149.479 57.9613 149.611 57.8181C149.688 57.8734 150.684 56.4624 151.186 55.7402C148.592 47.5871 150.196 41.0734 149.912 40.635C149.912 40.635 151.976 41.7697 153.102 44.3745C154.304 46.6476 154.961 50.8679 152.436 55.1029C152.455 55.1158 152.471 55.1213 152.486 55.1342C152.513 55.1526 152.526 55.1821 152.548 55.2042C155.491 51.2713 157.999 48.4234 160.34 46.1963C163.108 43.7555 164.978 42.5084 164.976 42.4974C165.129 42.4347 164.579 46.1595 162.355 50.12C160.307 53.7397 156.46 56.8437 152.291 56.6797V56.6816Z" fill="white" fill-opacity="0.7"/>
<path d="M143.235 65.2861L138.547 68.2389C138.191 68.4784 137.731 68.2942 137.568 67.9387C137.395 67.5389 137.568 67.1263 137.903 66.9016L142.527 63.9763C142.729 59.4705 143.937 55.8084 144.965 53.2295C145.919 50.3668 147.061 48.5266 146.982 48.4418C146.982 48.4418 148.566 50.2766 148.775 53.4321C149.228 56.3997 147.948 60.7158 143.698 63.9616C143.728 63.9929 143.761 64.0187 143.786 64.0574C148.212 61.215 152.143 59.6234 155.208 58.2326C158.75 56.9155 161.177 56.3758 161.177 56.3758C161.177 56.3758 160.847 57.3024 159.876 58.5679C158.886 59.7837 157.557 61.5153 155.723 62.9484C152.194 65.6655 147.279 67.2829 143.235 65.2879V65.2861ZM157.461 45.3121L156.752 47.9371C156.636 48.3516 156.246 48.5966 155.872 48.4455C155.686 48.3654 155.535 48.2213 155.446 48.0392C155.357 47.8572 155.336 47.6492 155.386 47.4526L156.068 44.9289C153.466 41.9097 151.809 38.6418 151.045 35.9763C149.884 33.0676 149.868 30.7171 149.736 30.6803C149.736 30.6803 151.831 31.2329 153.87 33.4434C155.762 35.3537 157.705 38.9587 156.955 43.8439C157.008 43.8403 157.06 43.8292 157.111 43.8384C158.35 39.0766 159.826 35.4458 161.328 32.7232C163.086 29.6892 164.762 27.9595 164.762 27.9595C164.762 27.9595 164.967 28.7847 164.93 30.1645C164.938 31.535 164.846 33.4526 164.52 35.4789C163.588 39.3732 161.553 43.7979 157.461 45.3121Z" fill="white" fill-opacity="0.7"/>
</svg>
