<svg width="130" height="130" viewBox="0 0 130 130" fill="none" xmlns="http://www.w3.org/2000/svg">
<circle cx="65" cy="65" r="65" fill="white"/>
<path d="M48.1399 40.155H48.1216C47.3125 40.155 46.6567 40.8108 46.6567 41.6199C46.6567 42.4289 47.3125 43.0847 48.1216 43.0847H48.1399C48.9489 43.0847 49.6047 42.4289 49.6047 41.6199C49.6047 40.8108 48.9489 40.155 48.1399 40.155Z" fill="#4C82DE"/>
<path d="M97.1406 40.155H54.6701C53.8611 40.155 53.2053 40.8108 53.2053 41.6199C53.2053 42.4289 53.8611 43.0847 54.6701 43.0847H97.1406C97.2165 43.0847 97.2911 43.0904 97.3655 43.0961L93.2723 47.1894H74.1646C73.3555 47.1894 72.6997 47.8452 72.6997 48.6542C72.6997 49.4632 73.3555 50.119 74.1646 50.119H90.3426L69.9243 70.5374C67.4847 72.9769 63.5153 72.9771 61.0757 70.5374L33.6345 43.0961C33.7089 43.0904 33.7835 43.0847 33.8594 43.0847H41.623C42.4321 43.0847 43.0879 42.4289 43.0879 41.6199C43.0879 40.8108 42.4321 40.155 41.623 40.155H33.8594C30.6285 40.155 28 42.7835 28 46.0144V84.9854C28 88.2163 30.6285 90.8448 33.8594 90.8448H97.1406C100.371 90.8448 103 88.2163 103 84.9854V46.0144C103 42.7835 100.371 40.155 97.1406 40.155ZM30.9297 84.9854V46.0144C30.9297 45.5813 31.0267 45.1712 31.1961 44.8009L51.5841 65.1889L31.0321 85.741C30.9675 85.4994 30.9297 85.247 30.9297 84.9854ZM97.1406 87.9151H33.8594C33.5978 87.9151 33.3454 87.8773 33.1038 87.8127L53.6559 67.2606L59.0043 72.6091C60.7951 74.3999 63.1475 75.2953 65.5 75.2953C67.8525 75.2953 70.2049 74.3999 71.9958 72.6091L77.3441 67.2606L97.8962 87.8127C97.6546 87.8773 97.4022 87.9151 97.1406 87.9151ZM100.07 84.9854C100.07 85.247 100.033 85.4994 99.9679 85.741L79.4159 65.1891L99.8039 44.8009C99.9733 45.1712 100.07 45.5813 100.07 46.0144V84.9854Z" fill="#4C82DE"/>
<path d="M68.0342 47.1895H68.0122C67.2032 47.1895 66.5474 47.8453 66.5474 48.6543C66.5474 49.4633 67.2032 50.1191 68.0122 50.1191H68.0342C68.8432 50.1191 69.499 49.4633 69.499 48.6543C69.499 47.8453 68.8432 47.1895 68.0342 47.1895Z" fill="#4C82DE"/>
</svg>
