<svg width="130" height="130" viewBox="0 0 130 130" fill="none" xmlns="http://www.w3.org/2000/svg">
<circle cx="65" cy="65" r="65" fill="white"/>
<path d="M100.996 87.9468C100.996 87.9358 100.996 87.925 100.995 87.914C100.991 87.8705 100.985 87.8279 100.976 87.7861C100.975 87.782 100.973 87.7779 100.972 87.7738C100.964 87.7355 100.953 87.698 100.941 87.6613C100.937 87.6515 100.933 87.642 100.93 87.6323C100.918 87.5991 100.904 87.5667 100.888 87.5352C100.886 87.5296 100.884 87.5239 100.881 87.5184L95.0053 75.9288V37.7989C95.0053 36.6262 94.0512 35.6721 92.8785 35.6721H34.1212C32.9485 35.6721 31.9944 36.6262 31.9944 37.7989V75.9285L26.1188 87.5182C26.116 87.5238 26.1143 87.5295 26.1116 87.5351C26.0962 87.5666 26.0825 87.5989 26.07 87.632C26.0664 87.6417 26.0627 87.6514 26.0593 87.6612C26.0469 87.698 26.036 87.7356 26.0274 87.774C26.0265 87.7779 26.0252 87.7819 26.0243 87.7858C26.0154 87.8277 26.0091 87.8704 26.0051 87.9139C26.0041 87.9247 26.0041 87.9357 26.0035 87.9465C26.0021 87.9694 26 87.992 26 88.0151V90.8021C26 92.195 27.1331 93.3281 28.526 93.3281H98.474C99.8669 93.3281 101 92.195 101 90.8021V88.0151C101 87.992 100.998 87.9694 100.996 87.9468ZM34.1918 37.8697H92.8082V75.0927H34.1918V37.8697ZM33.7679 77.2898H93.2319L98.1125 86.9163H73.9748L72.7632 82.5234C72.5166 81.6291 71.6965 81.0045 70.7688 81.0045H56.2309C55.3032 81.0045 54.483 81.6291 54.2365 82.5232L53.0249 86.9163H28.8874L33.7679 77.2898ZM71.6955 86.9165H55.3045L56.3289 83.2019H70.6711L71.6955 86.9165ZM98.8027 90.802C98.8027 90.9832 98.6552 91.1307 98.474 91.1307H28.526C28.3448 91.1307 28.1973 90.9832 28.1973 90.802V89.1136H98.8027V90.802Z" fill="#4C82DE"/>
<path d="M89.3656 58.3118C88.7587 58.3118 88.2669 58.8035 88.2669 59.4104V70.5513H38.7327V59.4104C38.7327 58.8035 38.2409 58.3118 37.634 58.3118C37.0271 58.3118 36.5354 58.8035 36.5354 59.4104V71.0257C36.5354 71.9757 37.3081 72.7485 38.2582 72.7485H88.7415C89.6915 72.7485 90.4644 71.9758 90.4644 71.0257V59.4104C90.4642 58.8038 89.9725 58.3118 89.3656 58.3118Z" fill="#4C82DE"/>
<path d="M88.7414 40.2131H38.2582C37.3083 40.2131 36.5354 40.9858 36.5354 41.9359V53.5513C36.5354 54.1582 37.0271 54.6499 37.634 54.6499C38.2409 54.6499 38.7327 54.1582 38.7327 53.5513V42.4104H88.2669V53.5513C88.2669 54.1582 88.7587 54.6499 89.3656 54.6499C89.9725 54.6499 90.4642 54.1582 90.4642 53.5513V41.9359C90.4642 40.9857 89.6915 40.2131 88.7414 40.2131Z" fill="#4C82DE"/>
</svg>
