<svg width="62" height="82" viewBox="0 0 62 82" fill="none" xmlns="http://www.w3.org/2000/svg">
<path d="M2.26074 15.3418C2.26074 6.86873 9.18533 0 17.7273 0H44.2659C52.8079 0 59.7325 6.86873 59.7325 15.3418C59.7325 20.7069 56.956 25.429 52.7505 28.171C56.956 30.9132 59.7325 35.6351 59.7325 41.0003C59.7325 49.4734 52.8079 56.3422 44.2659 56.3422H43.9301C39.9256 56.3422 36.2765 54.8325 33.5297 52.3557V66.4916C33.5297 75.0776 26.4241 82 17.8106 82C9.29001 82 2.26074 75.1522 2.26074 66.6581C2.26074 61.2932 5.03694 56.5715 9.24207 53.8293C5.03694 51.0871 2.26074 46.3652 2.26074 41.0003C2.26074 35.6351 5.03718 30.9132 9.2426 28.171C5.03718 25.429 2.26074 20.7069 2.26074 15.3418ZM28.4635 30.6839H17.7273C11.9833 30.6839 7.32695 35.3028 7.32695 41.0003C7.32695 46.6759 11.9474 51.2811 17.6608 51.3166C17.6829 51.3165 17.705 51.3165 17.7273 51.3165H28.4635V30.6839ZM33.5297 41.0003C33.5297 46.6979 38.186 51.3168 43.9301 51.3168H44.2659C50.0099 51.3168 54.6662 46.6979 54.6662 41.0003C54.6662 35.3028 50.0099 30.6839 44.2659 30.6839H43.9301C38.186 30.6839 33.5297 35.3028 33.5297 41.0003ZM17.7273 56.3422C17.705 56.3422 17.6829 56.342 17.6608 56.342C11.9474 56.3774 7.32695 60.9825 7.32695 66.6581C7.32695 72.3349 12.0455 76.9746 17.8106 76.9746C23.6687 76.9746 28.4635 72.2603 28.4635 66.4916V56.3422H17.7273ZM17.7273 5.02535C11.9833 5.02535 7.32695 9.64418 7.32695 15.3418C7.32695 21.0394 11.9833 25.6582 17.7273 25.6582H28.4635V5.02535H17.7273ZM33.5297 25.6582H44.2659C50.0099 25.6582 54.6662 21.0394 54.6662 15.3418C54.6662 9.64418 50.0099 5.02535 44.2659 5.02535H33.5297V25.6582Z" fill="white"/>
</svg>
